<svg width="120" height="120" viewBox="0 0 120 120" fill="none" xmlns="http://www.w3.org/2000/svg">
<path fill-rule="evenodd" clip-rule="evenodd" d="M117.656 8.20312H2.34375C1.04919 8.20312 0 9.25232 0 10.5469V27.8311V27.8357V109.562C0 110.857 1.05011 111.906 2.34375 111.906H66.1166C66.1185 111.906 66.1212 111.907 66.123 111.907C66.1258 111.907 66.1285 111.906 66.1313 111.906H108.281C109.576 111.906 110.625 110.857 110.625 109.562C110.625 108.268 109.576 107.218 108.281 107.218H67.6071C66.5616 104.897 65.7632 102.467 65.2332 99.9738C65.0034 98.8907 64.0466 98.1171 62.9407 98.1171H58.5178V86.8094H62.9407C64.0475 86.8094 65.0034 86.0358 65.2332 84.9527C66.1469 80.6479 67.8305 76.5875 70.2347 72.8851C70.838 71.9568 70.7098 70.7336 69.9271 69.9509L66.7969 66.8207L74.7922 58.8263L77.9214 61.9556C78.7051 62.7383 79.9283 62.8674 80.8566 62.2641C84.5554 59.8599 88.6157 58.1772 92.9233 57.2626C94.0063 57.0328 94.7809 56.077 94.7809 54.9701V50.5463H106.088V54.9701C106.088 56.077 106.862 57.0328 107.944 57.2626C110.48 57.8009 112.952 58.6185 115.312 59.6915V100.188C115.312 101.482 116.362 102.532 117.656 102.532C118.951 102.532 120 101.482 120 100.188V10.5469C120 9.25232 118.951 8.20312 117.656 8.20312ZM4.6875 12.8906H115.312V25.4874H4.6875V12.8906ZM110.775 53.1171V48.2025C110.775 46.9089 109.726 45.8588 108.431 45.8588H92.4371C91.1426 45.8588 90.0934 46.9089 90.0934 48.2025V53.1171C86.5219 54.0518 83.1161 55.4636 79.9265 57.3312L76.4493 53.8541C75.5338 52.9385 74.0506 52.9385 73.1351 53.8541L61.8256 65.1636C60.91 66.0791 60.91 67.5623 61.8256 68.4778L65.3018 71.955C63.4341 75.1465 62.0224 78.5532 61.0876 82.1219H56.1731C54.8795 82.1219 53.8293 83.172 53.8293 84.4656V100.461C53.8293 101.754 54.8795 102.805 56.1731 102.805H61.0886C61.4813 104.302 61.9638 105.776 62.525 107.218H4.6875V30.1749H115.312V54.6021C113.83 54.0198 112.316 53.5217 110.775 53.1171Z" fill="#14697E"/>
<path fill-rule="evenodd" clip-rule="evenodd" d="M86.543 16.8457H82.4689C81.1752 16.8457 80.1251 17.8949 80.1251 19.1895C80.1251 20.484 81.1752 21.5332 82.4689 21.5332H86.543C87.8375 21.5332 88.8867 20.484 88.8867 19.1895C88.8867 17.8949 87.8375 16.8457 86.543 16.8457Z" fill="#14697E"/>
<path fill-rule="evenodd" clip-rule="evenodd" d="M98.0255 16.8457H93.9514C92.6569 16.8457 91.6077 17.8949 91.6077 19.1895C91.6077 20.484 92.6569 21.5332 93.9514 21.5332H98.0255C99.3201 21.5332 100.369 20.484 100.369 19.1895C100.369 17.8949 99.3201 16.8457 98.0255 16.8457Z" fill="#14697E"/>
<path fill-rule="evenodd" clip-rule="evenodd" d="M109.508 16.8457H105.434C104.139 16.8457 103.09 17.8949 103.09 19.1895C103.09 20.484 104.139 21.5332 105.434 21.5332H109.508C110.802 21.5332 111.852 20.484 111.852 19.1895C111.852 17.8949 110.803 16.8457 109.508 16.8457Z" fill="#14697E"/>
<path fill-rule="evenodd" clip-rule="evenodd" d="M37.6538 80.5536H13.949C12.6544 80.5536 11.6052 81.6028 11.6052 82.8973C11.6052 84.1919 12.6544 85.2411 13.949 85.2411H37.6538C38.9474 85.2411 39.9976 84.1919 39.9976 82.8973C39.9976 81.6028 38.9474 80.5536 37.6538 80.5536Z" fill="#14697E"/>
<path fill-rule="evenodd" clip-rule="evenodd" d="M74.7922 38.5748H13.949C12.6544 38.5748 11.6052 39.624 11.6052 40.9186C11.6052 42.2131 12.6544 43.2623 13.949 43.2623H74.7922C76.0867 43.2623 77.1359 42.2131 77.1359 40.9186C77.1359 39.624 76.0867 38.5748 74.7922 38.5748Z" fill="#14697E"/>
<path fill-rule="evenodd" clip-rule="evenodd" d="M13.949 57.0905H46.0492C47.3428 57.0905 48.3929 56.0413 48.3929 54.7467C48.3929 53.4531 47.3428 52.403 46.0492 52.403H13.949C12.6544 52.403 11.6052 53.4531 11.6052 54.7467C11.6052 56.0413 12.6544 57.0905 13.949 57.0905Z" fill="#14697E"/>
<path fill-rule="evenodd" clip-rule="evenodd" d="M51.481 61.7871H13.949C12.6544 61.7871 11.6052 62.8363 11.6052 64.1309C11.6052 65.4254 12.6544 66.4746 13.949 66.4746H51.481C52.7756 66.4746 53.8248 65.4254 53.8248 64.1309C53.8248 62.8363 52.7756 61.7871 51.481 61.7871Z" fill="#14697E"/>
<path fill-rule="evenodd" clip-rule="evenodd" d="M41.1099 71.1703H13.949C12.6544 71.1703 11.6052 72.2195 11.6052 73.5141C11.6052 74.8087 12.6544 75.8578 13.949 75.8578H41.1108C42.4045 75.8578 43.4546 74.8087 43.4546 73.5141C43.4537 72.2195 42.4045 71.1703 41.1099 71.1703Z" fill="#14697E"/>
<path fill-rule="evenodd" clip-rule="evenodd" d="M117.656 107.218C116.365 107.218 115.312 108.271 115.312 109.562C115.312 110.853 116.365 111.906 117.656 111.906C118.947 111.906 120 110.853 120 109.562C120 108.271 118.947 107.218 117.656 107.218Z" fill="#14697E"/>
</svg>
