<svg width="207" height="164" viewBox="0 0 207 164" fill="none" xmlns="http://www.w3.org/2000/svg">
<path d="M59.3485 140.912H65.9485C67.8205 140.912 69.4285 141.248 70.7725 141.92C72.1165 142.592 73.1405 143.568 73.8445 144.848C74.5645 146.128 74.9245 147.656 74.9245 149.432C74.9245 151.224 74.5725 152.76 73.8685 154.04C73.1645 155.32 72.1405 156.304 70.7965 156.992C69.4525 157.664 67.8365 158 65.9485 158H59.3485V140.912ZM65.7085 154.976C69.3565 154.976 71.1805 153.128 71.1805 149.432C71.1805 145.768 69.3565 143.936 65.7085 143.936H63.0925V154.976H65.7085ZM77.8642 140.912H89.6482V143.816H81.5122V147.848H89.1442V150.776H81.5122V155.096H89.6482V158H77.8642V140.912ZM97.973 158.216C96.677 158.216 95.429 158.048 94.229 157.712C93.045 157.36 92.061 156.872 91.277 156.248L92.477 153.56C94.125 154.712 95.965 155.288 97.997 155.288C99.085 155.288 99.917 155.12 100.493 154.784C101.085 154.432 101.381 153.944 101.381 153.32C101.381 152.776 101.109 152.352 100.565 152.048C100.037 151.728 99.101 151.424 97.757 151.136C96.253 150.832 95.053 150.464 94.157 150.032C93.277 149.584 92.629 149.048 92.213 148.424C91.813 147.784 91.613 146.992 91.613 146.048C91.613 145.024 91.893 144.104 92.453 143.288C93.029 142.472 93.829 141.84 94.853 141.392C95.877 140.928 97.061 140.696 98.405 140.696C99.621 140.696 100.789 140.872 101.909 141.224C103.029 141.576 103.925 142.056 104.597 142.664L103.397 145.352C101.893 144.2 100.237 143.624 98.429 143.624C97.469 143.624 96.701 143.816 96.125 144.2C95.549 144.584 95.261 145.104 95.261 145.76C95.261 146.144 95.365 146.464 95.573 146.72C95.797 146.976 96.165 147.208 96.677 147.416C97.189 147.608 97.917 147.8 98.861 147.992C101.053 148.472 102.629 149.096 103.589 149.864C104.565 150.632 105.053 151.68 105.053 153.008C105.053 154.608 104.429 155.88 103.181 156.824C101.933 157.752 100.197 158.216 97.973 158.216ZM107.77 140.912H111.514V158H107.77V140.912ZM129.606 148.568V156.944C128.774 157.344 127.798 157.656 126.678 157.88C125.574 158.104 124.438 158.216 123.27 158.216C121.462 158.216 119.894 157.864 118.566 157.16C117.238 156.456 116.214 155.448 115.494 154.136C114.79 152.824 114.438 151.256 114.438 149.432C114.438 147.656 114.79 146.112 115.494 144.8C116.214 143.488 117.222 142.48 118.518 141.776C119.83 141.056 121.358 140.696 123.102 140.696C124.334 140.696 125.478 140.864 126.534 141.2C127.606 141.536 128.486 142.008 129.174 142.616L127.974 145.304C127.174 144.728 126.398 144.312 125.646 144.056C124.894 143.8 124.078 143.672 123.198 143.672C119.902 143.672 118.254 145.592 118.254 149.432C118.254 153.352 119.974 155.312 123.414 155.312C124.358 155.312 125.302 155.192 126.246 154.952V151.184H122.886V148.568H129.606ZM147.633 140.912V158H144.849L136.329 147.104V158H132.825V140.912H135.585L144.105 151.784V140.912H147.633Z" fill="#14697E"/>
<path fill-rule="evenodd" clip-rule="evenodd" d="M161.656 7.26562H46.3438C45.0492 7.26562 44 8.31482 44 9.60938V110.323C44 111.617 45.0492 112.667 46.3438 112.667H94.625C95.9196 112.667 96.9688 111.617 96.9688 110.323C96.9688 109.028 95.9196 107.979 94.625 107.979H48.6875V29.5825H159.312V107.978H113.375C112.08 107.978 111.031 109.027 111.031 110.322C111.031 111.617 112.08 112.666 113.375 112.666H161.656C162.951 112.666 164 111.617 164 110.322V9.60938C164 8.31482 162.951 7.26562 161.656 7.26562ZM48.6875 24.895V11.9531H159.312V24.8959H48.6875V24.895Z" fill="#14697E"/>
<path fill-rule="evenodd" clip-rule="evenodd" d="M141.948 16.0803H138.341C137.047 16.0803 135.998 17.1304 135.998 18.4241C135.998 19.7186 137.047 20.7678 138.341 20.7678H141.948C143.242 20.7678 144.291 19.7186 144.291 18.4241C144.291 17.1304 143.242 16.0803 141.948 16.0803Z" fill="#14697E"/>
<path fill-rule="evenodd" clip-rule="evenodd" d="M152.733 16.0803H149.126C147.832 16.0803 146.783 17.1304 146.783 18.4241C146.783 19.7186 147.832 20.7678 149.126 20.7678H152.733C154.027 20.7678 155.076 19.7186 155.076 18.4241C155.076 17.1304 154.027 16.0803 152.733 16.0803Z" fill="#14697E"/>
<path fill-rule="evenodd" clip-rule="evenodd" d="M131.164 16.0803H127.557C126.262 16.0803 125.213 17.1304 125.213 18.4241C125.213 19.7186 126.262 20.7678 127.557 20.7678H131.164C132.458 20.7678 133.507 19.7186 133.507 18.4241C133.507 17.1304 132.458 16.0803 131.164 16.0803Z" fill="#14697E"/>
<path fill-rule="evenodd" clip-rule="evenodd" d="M123.578 75.4788V98.139C123.578 99.4336 124.628 100.483 125.921 100.483H148.583C149.877 100.483 150.926 99.4336 150.926 98.139V75.4788C150.926 74.1843 149.877 73.1351 148.583 73.1351H125.921C124.628 73.1351 123.578 74.1843 123.578 75.4788ZM128.265 77.8226H146.239V95.7953H128.265V77.8226Z" fill="#14697E"/>
<path fill-rule="evenodd" clip-rule="evenodd" d="M55.1841 98.139C55.1841 99.4336 56.2333 100.483 57.5278 100.483H80.188C81.4826 100.483 82.5318 99.4336 82.5318 98.139V75.4788C82.5318 74.1843 81.4826 73.1351 80.188 73.1351H57.5278C56.2333 73.1351 55.1841 74.1843 55.1841 75.4788V98.139ZM59.8716 77.8226H77.8443V95.7953H59.8716V77.8226Z" fill="#14697E"/>
<path fill-rule="evenodd" clip-rule="evenodd" d="M91.7246 100.483H114.385C115.679 100.483 116.729 99.4336 116.729 98.139V75.4788C116.729 74.1843 115.679 73.1351 114.385 73.1351H91.7246C90.4301 73.1351 89.3809 74.1843 89.3809 75.4788V98.139C89.3809 99.4336 90.4301 100.483 91.7246 100.483ZM94.0684 77.8226H112.041V95.7953H94.0684V77.8226Z" fill="#14697E"/>
<path fill-rule="evenodd" clip-rule="evenodd" d="M90.3284 41.0687H93.9283C95.2228 41.0687 96.272 40.0195 96.272 38.725C96.272 37.4313 95.2228 36.3812 93.9283 36.3812H90.3284C89.0339 36.3812 87.9847 37.4313 87.9847 38.725C87.9847 40.0195 89.0339 41.0687 90.3284 41.0687Z" fill="#14697E"/>
<path fill-rule="evenodd" clip-rule="evenodd" d="M85.3452 63.8617C85.3452 62.5681 84.296 61.5179 83.0015 61.5179H79.4025C78.108 61.5179 77.0588 62.5681 77.0588 63.8617C77.0588 65.1562 78.108 66.2054 79.4025 66.2054H83.0015C84.296 66.2054 85.3452 65.1562 85.3452 63.8617Z" fill="#14697E"/>
<path fill-rule="evenodd" clip-rule="evenodd" d="M90.3284 66.2054H93.9283C95.2228 66.2054 96.272 65.1562 96.272 63.8617C96.272 62.5681 95.2228 61.5179 93.9283 61.5179H90.3284C89.0339 61.5179 87.9847 62.5681 87.9847 63.8617C87.9847 65.1562 89.0339 66.2054 90.3284 66.2054Z" fill="#14697E"/>
<path fill-rule="evenodd" clip-rule="evenodd" d="M83.0015 36.3812H79.4025C78.108 36.3812 77.0588 37.4313 77.0588 38.725C77.0588 40.0195 78.108 41.0687 79.4025 41.0687H83.0015C84.296 41.0687 85.3452 40.0195 85.3452 38.725C85.3452 37.4313 84.296 36.3812 83.0015 36.3812Z" fill="#14697E"/>
<path fill-rule="evenodd" clip-rule="evenodd" d="M101.255 41.0687H104.854C106.149 41.0687 107.198 40.0195 107.198 38.725C107.198 37.4313 106.149 36.3812 104.854 36.3812H101.255C99.9607 36.3812 98.9115 37.4313 98.9115 38.725C98.9115 40.0195 99.9607 41.0687 101.255 41.0687Z" fill="#14697E"/>
<path fill-rule="evenodd" clip-rule="evenodd" d="M101.255 66.2054H104.854C106.149 66.2054 107.198 65.1562 107.198 63.8617C107.198 62.5681 106.149 61.5179 104.854 61.5179H101.255C99.9607 61.5179 98.9115 62.5681 98.9115 63.8617C98.9115 65.1562 99.9607 66.2054 101.255 66.2054Z" fill="#14697E"/>
<path fill-rule="evenodd" clip-rule="evenodd" d="M112.182 66.2054H115.781C117.076 66.2054 118.125 65.1562 118.125 63.8617C118.125 62.5681 117.076 61.5179 115.781 61.5179H112.182C110.888 61.5179 109.838 62.5681 109.838 63.8617C109.838 65.1562 110.888 66.2054 112.182 66.2054Z" fill="#14697E"/>
<path fill-rule="evenodd" clip-rule="evenodd" d="M112.182 41.0687H115.781C117.076 41.0687 118.125 40.0195 118.125 38.725C118.125 37.4313 117.076 36.3812 115.781 36.3812H112.182C110.888 36.3812 109.838 37.4313 109.838 38.725C109.838 40.0195 110.888 41.0687 112.182 41.0687Z" fill="#14697E"/>
<path fill-rule="evenodd" clip-rule="evenodd" d="M68.4757 41.0687H72.0746C73.3692 41.0687 74.4184 40.0195 74.4184 38.725C74.4184 37.4313 73.3692 36.3812 72.0746 36.3812H68.4757C67.1812 36.3812 66.132 37.4313 66.132 38.725C66.132 40.0195 67.1812 41.0687 68.4757 41.0687Z" fill="#14697E"/>
<path fill-rule="evenodd" clip-rule="evenodd" d="M123.108 41.0687H126.708C128.001 41.0687 129.052 40.0195 129.052 38.725C129.052 37.4313 128.001 36.3812 126.708 36.3812H123.108C121.813 36.3812 120.764 37.4313 120.764 38.725C120.764 40.0195 121.813 41.0687 123.108 41.0687Z" fill="#14697E"/>
<path fill-rule="evenodd" clip-rule="evenodd" d="M55.1841 52.8699C55.1841 54.1644 56.2333 55.2136 57.5278 55.2136C58.8224 55.2136 59.8716 54.1644 59.8716 52.8699V49.7177C59.8716 48.4232 58.8224 47.374 57.5278 47.374C56.2333 47.374 55.1841 48.4232 55.1841 49.7177V52.8699Z" fill="#14697E"/>
<path fill-rule="evenodd" clip-rule="evenodd" d="M55.1841 63.8617C55.1841 65.1562 56.2333 66.2054 57.5278 66.2054H61.1487C62.4433 66.2054 63.4925 65.1562 63.4925 63.8617C63.4925 62.5681 62.4433 61.5179 61.1487 61.5179H59.8716V60.2408C59.8716 58.9471 58.8224 57.897 57.5278 57.897C56.2333 57.897 55.1841 58.9471 55.1841 60.2408V63.8617Z" fill="#14697E"/>
<path fill-rule="evenodd" clip-rule="evenodd" d="M57.5278 44.6906C58.8224 44.6906 59.8716 43.6404 59.8716 42.3468V41.0687H61.1487C62.4433 41.0687 63.4925 40.0195 63.4925 38.725C63.4925 37.4313 62.4433 36.3812 61.1487 36.3812H57.5278C56.2333 36.3812 55.1841 37.4313 55.1841 38.725V42.3468C55.1841 43.6404 56.2333 44.6906 57.5278 44.6906Z" fill="#14697E"/>
<path fill-rule="evenodd" clip-rule="evenodd" d="M123.108 66.2054H126.708C128.001 66.2054 129.052 65.1562 129.052 63.8617C129.052 62.5681 128.001 61.5179 126.708 61.5179H123.108C121.813 61.5179 120.764 62.5681 120.764 63.8617C120.764 65.1562 121.813 66.2054 123.108 66.2054Z" fill="#14697E"/>
<path fill-rule="evenodd" clip-rule="evenodd" d="M134.035 41.0687H137.634C138.928 41.0687 139.977 40.0195 139.977 38.725C139.977 37.4313 138.928 36.3812 137.634 36.3812H134.035C132.74 36.3812 131.691 37.4313 131.691 38.725C131.691 40.0195 132.74 41.0687 134.035 41.0687Z" fill="#14697E"/>
<path fill-rule="evenodd" clip-rule="evenodd" d="M68.4757 66.2054H72.0746C73.3692 66.2054 74.4184 65.1562 74.4184 63.8617C74.4184 62.5681 73.3692 61.5179 72.0746 61.5179H68.4757C67.1812 61.5179 66.132 62.5681 66.132 63.8617C66.132 65.1562 67.1812 66.2054 68.4757 66.2054Z" fill="#14697E"/>
<path fill-rule="evenodd" clip-rule="evenodd" d="M134.035 66.2054H137.634C138.928 66.2054 139.977 65.1562 139.977 63.8617C139.977 62.5681 138.928 61.5179 137.634 61.5179H134.035C132.74 61.5179 131.691 62.5681 131.691 63.8617C131.691 65.1562 132.74 66.2054 134.035 66.2054Z" fill="#14697E"/>
<path fill-rule="evenodd" clip-rule="evenodd" d="M150.926 38.725C150.926 37.4313 149.877 36.3812 148.583 36.3812H144.962C143.667 36.3812 142.618 37.4313 142.618 38.725C142.618 40.0195 143.667 41.0687 144.962 41.0687H146.239V42.3468C146.239 43.6404 147.288 44.6906 148.583 44.6906C149.877 44.6906 150.926 43.6404 150.926 42.3468V38.725Z" fill="#14697E"/>
<path fill-rule="evenodd" clip-rule="evenodd" d="M148.583 47.374C147.288 47.374 146.239 48.4232 146.239 49.7177V52.8699C146.239 54.1644 147.288 55.2136 148.583 55.2136C149.877 55.2136 150.926 54.1644 150.926 52.8699V49.7177C150.926 48.4232 149.877 47.374 148.583 47.374Z" fill="#14697E"/>
<path fill-rule="evenodd" clip-rule="evenodd" d="M144.962 66.2054H148.583C149.877 66.2054 150.926 65.1562 150.926 63.8617V60.2408C150.926 58.9471 149.877 57.897 148.583 57.897C147.288 57.897 146.239 58.9471 146.239 60.2408V61.5179H144.962C143.667 61.5179 142.618 62.5681 142.618 63.8617C142.618 65.1562 143.667 66.2054 144.962 66.2054Z" fill="#14697E"/>
<path fill-rule="evenodd" clip-rule="evenodd" d="M104 107.978C102.709 107.978 101.656 109.031 101.656 110.322C101.656 111.613 102.709 112.666 104 112.666C105.291 112.666 106.344 111.613 106.344 110.322C106.344 109.031 105.291 107.978 104 107.978Z" fill="#14697E"/>
</svg>
