<svg width="231" height="194" viewBox="0 0 231 194" fill="none" xmlns="http://www.w3.org/2000/svg">
<path d="M113.017 140.912L106.945 158H103.945L99.9612 146.696L95.9532 158H92.9532L86.8812 140.912H90.6972L94.6332 152.72L98.7612 140.912H101.377L105.409 152.888L109.441 140.912H113.017ZM115.177 140.912H126.961V143.816H118.825V147.848H126.457V150.776H118.825V155.096H126.961V158H115.177V140.912ZM140.512 149.168C141.504 149.456 142.272 149.96 142.816 150.68C143.36 151.4 143.632 152.28 143.632 153.32C143.632 154.76 143.096 155.904 142.024 156.752C140.952 157.584 139.496 158 137.656 158H129.544V140.912H137.416C139.192 140.912 140.592 141.312 141.616 142.112C142.656 142.896 143.176 143.976 143.176 145.352C143.176 146.248 142.936 147.032 142.456 147.704C141.992 148.376 141.344 148.864 140.512 149.168ZM133.192 147.872H136.792C137.752 147.872 138.464 147.712 138.928 147.392C139.408 147.056 139.648 146.544 139.648 145.856C139.648 145.152 139.408 144.632 138.928 144.296C138.464 143.96 137.752 143.792 136.792 143.792H133.192V147.872ZM137.224 155.12C138.232 155.12 138.96 154.952 139.408 154.616C139.872 154.264 140.104 153.712 140.104 152.96C140.104 152.192 139.872 151.632 139.408 151.28C138.96 150.928 138.232 150.752 137.224 150.752H133.192V155.12H137.224ZM26.6767 170.912H33.2767C35.1487 170.912 36.7567 171.248 38.1007 171.92C39.4447 172.592 40.4687 173.568 41.1727 174.848C41.8927 176.128 42.2527 177.656 42.2527 179.432C42.2527 181.224 41.9007 182.76 41.1967 184.04C40.4927 185.32 39.4687 186.304 38.1247 186.992C36.7807 187.664 35.1647 188 33.2767 188H26.6767V170.912ZM33.0367 184.976C36.6847 184.976 38.5087 183.128 38.5087 179.432C38.5087 175.768 36.6847 173.936 33.0367 173.936H30.4207V184.976H33.0367ZM45.1923 170.912H56.9763V173.816H48.8403V177.848H56.4723V180.776H48.8403V185.096H56.9763V188H45.1923V170.912ZM75.9492 170.912L68.2692 188H65.2692L57.5892 170.912H61.4772L66.8052 183.32L72.1812 170.912H75.9492ZM77.3017 170.912H89.0857V173.816H80.9497V177.848H88.5817V180.776H80.9497V185.096H89.0857V188H77.3017V170.912ZM91.6688 170.912H95.4128V184.952H103.045V188H91.6688V170.912ZM112.22 188.216C110.524 188.216 109.044 187.864 107.78 187.16C106.532 186.44 105.564 185.416 104.876 184.088C104.204 182.76 103.868 181.208 103.868 179.432C103.868 177.656 104.204 176.112 104.876 174.8C105.564 173.488 106.532 172.48 107.78 171.776C109.044 171.056 110.524 170.696 112.22 170.696C113.916 170.696 115.388 171.056 116.636 171.776C117.884 172.48 118.844 173.488 119.516 174.8C120.188 176.112 120.524 177.656 120.524 179.432C120.524 181.208 120.188 182.76 119.516 184.088C118.844 185.416 117.884 186.44 116.636 187.16C115.388 187.864 113.916 188.216 112.22 188.216ZM112.22 185.288C113.66 185.288 114.78 184.784 115.58 183.776C116.396 182.768 116.804 181.32 116.804 179.432C116.804 177.544 116.396 176.104 115.58 175.112C114.78 174.12 113.66 173.624 112.22 173.624C110.78 173.624 109.652 174.12 108.836 175.112C108.036 176.104 107.636 177.544 107.636 179.432C107.636 181.336 108.036 182.792 108.836 183.8C109.652 184.792 110.78 185.288 112.22 185.288ZM123.45 170.912H131.202C133.09 170.912 134.554 171.368 135.594 172.28C136.65 173.192 137.178 174.432 137.178 176C137.178 177.552 136.65 178.792 135.594 179.72C134.538 180.632 133.074 181.088 131.202 181.088H127.194V188H123.45V170.912ZM130.722 178.232C132.674 178.232 133.65 177.496 133.65 176.024C133.65 174.536 132.674 173.792 130.722 173.792H127.194V178.232H130.722ZM156.613 170.912V188H153.301V178.664L149.365 188H146.941L142.981 178.784V188H139.693V170.912H142.669L148.189 183.512L153.661 170.912H156.613ZM160.059 170.912H171.843V173.816H163.707V177.848H171.339V180.776H163.707V185.096H171.843V188H160.059V170.912ZM189.235 170.912V188H186.451L177.931 177.104V188H174.427V170.912H177.187L185.707 181.784V170.912H189.235ZM196.597 173.96H191.245V170.912H205.741V173.96H200.389V188H196.597V173.96Z" fill="#14697E"/>
<path fill-rule="evenodd" clip-rule="evenodd" d="M173.656 8.20312H58.3438C57.0492 8.20312 56 9.25232 56 10.5469V27.8311V27.8357V109.562C56 110.857 57.0501 111.906 58.3438 111.906H122.117C122.118 111.906 122.121 111.907 122.123 111.907C122.126 111.907 122.129 111.906 122.131 111.906H164.281C165.576 111.906 166.625 110.857 166.625 109.562C166.625 108.268 165.576 107.218 164.281 107.218H123.607C122.562 104.897 121.763 102.467 121.233 99.9738C121.003 98.8907 120.047 98.1171 118.941 98.1171H114.518V86.8094H118.941C120.048 86.8094 121.003 86.0358 121.233 84.9527C122.147 80.6479 123.831 76.5875 126.235 72.8851C126.838 71.9568 126.71 70.7336 125.927 69.9509L122.797 66.8207L130.792 58.8263L133.921 61.9556C134.705 62.7383 135.928 62.8674 136.857 62.2641C140.555 59.8599 144.616 58.1772 148.923 57.2626C150.006 57.0328 150.781 56.077 150.781 54.9701V50.5463H162.088V54.9701C162.088 56.077 162.862 57.0328 163.944 57.2626C166.48 57.8009 168.952 58.6185 171.312 59.6915V100.188C171.312 101.482 172.362 102.532 173.656 102.532C174.951 102.532 176 101.482 176 100.188V10.5469C176 9.25232 174.951 8.20312 173.656 8.20312ZM60.6875 12.8906H171.312V25.4874H60.6875V12.8906ZM166.775 53.1171V48.2025C166.775 46.9089 165.726 45.8588 164.431 45.8588H148.437C147.143 45.8588 146.093 46.9089 146.093 48.2025V53.1171C142.522 54.0518 139.116 55.4636 135.926 57.3312L132.449 53.8541C131.534 52.9385 130.051 52.9385 129.135 53.8541L117.826 65.1636C116.91 66.0791 116.91 67.5623 117.826 68.4778L121.302 71.955C119.434 75.1465 118.022 78.5532 117.088 82.1219H112.173C110.879 82.1219 109.829 83.172 109.829 84.4656V100.461C109.829 101.754 110.879 102.805 112.173 102.805H117.089C117.481 104.302 117.964 105.776 118.525 107.218H60.6875V30.1749H171.312V54.6021C169.83 54.0198 168.316 53.5217 166.775 53.1171Z" fill="#14697E"/>
<path fill-rule="evenodd" clip-rule="evenodd" d="M142.543 16.8457H138.469C137.175 16.8457 136.125 17.8949 136.125 19.1895C136.125 20.484 137.175 21.5332 138.469 21.5332H142.543C143.838 21.5332 144.887 20.484 144.887 19.1895C144.887 17.8949 143.838 16.8457 142.543 16.8457Z" fill="#14697E"/>
<path fill-rule="evenodd" clip-rule="evenodd" d="M154.026 16.8457H149.951C148.657 16.8457 147.608 17.8949 147.608 19.1895C147.608 20.484 148.657 21.5332 149.951 21.5332H154.026C155.32 21.5332 156.369 20.484 156.369 19.1895C156.369 17.8949 155.32 16.8457 154.026 16.8457Z" fill="#14697E"/>
<path fill-rule="evenodd" clip-rule="evenodd" d="M165.508 16.8457H161.434C160.139 16.8457 159.09 17.8949 159.09 19.1895C159.09 20.484 160.139 21.5332 161.434 21.5332H165.508C166.802 21.5332 167.852 20.484 167.852 19.1895C167.852 17.8949 166.803 16.8457 165.508 16.8457Z" fill="#14697E"/>
<path fill-rule="evenodd" clip-rule="evenodd" d="M93.6538 80.5536H69.949C68.6544 80.5536 67.6052 81.6028 67.6052 82.8973C67.6052 84.1919 68.6544 85.2411 69.949 85.2411H93.6538C94.9474 85.2411 95.9976 84.1919 95.9976 82.8973C95.9976 81.6028 94.9474 80.5536 93.6538 80.5536Z" fill="#14697E"/>
<path fill-rule="evenodd" clip-rule="evenodd" d="M130.792 38.5748H69.949C68.6544 38.5748 67.6052 39.624 67.6052 40.9186C67.6052 42.2131 68.6544 43.2623 69.949 43.2623H130.792C132.087 43.2623 133.136 42.2131 133.136 40.9186C133.136 39.624 132.087 38.5748 130.792 38.5748Z" fill="#14697E"/>
<path fill-rule="evenodd" clip-rule="evenodd" d="M69.949 57.0905H102.049C103.343 57.0905 104.393 56.0413 104.393 54.7467C104.393 53.4531 103.343 52.403 102.049 52.403H69.949C68.6544 52.403 67.6052 53.4531 67.6052 54.7467C67.6052 56.0413 68.6544 57.0905 69.949 57.0905Z" fill="#14697E"/>
<path fill-rule="evenodd" clip-rule="evenodd" d="M107.481 61.7871H69.949C68.6544 61.7871 67.6052 62.8363 67.6052 64.1309C67.6052 65.4254 68.6544 66.4746 69.949 66.4746H107.481C108.776 66.4746 109.825 65.4254 109.825 64.1309C109.825 62.8363 108.776 61.7871 107.481 61.7871Z" fill="#14697E"/>
<path fill-rule="evenodd" clip-rule="evenodd" d="M97.1099 71.1703H69.949C68.6544 71.1703 67.6052 72.2195 67.6052 73.5141C67.6052 74.8087 68.6544 75.8578 69.949 75.8578H97.1108C98.4045 75.8578 99.4546 74.8087 99.4546 73.5141C99.4537 72.2195 98.4045 71.1703 97.1099 71.1703Z" fill="#14697E"/>
<path fill-rule="evenodd" clip-rule="evenodd" d="M173.656 107.218C172.365 107.218 171.312 108.271 171.312 109.562C171.312 110.853 172.365 111.906 173.656 111.906C174.947 111.906 176 110.853 176 109.562C176 108.271 174.947 107.218 173.656 107.218Z" fill="#14697E"/>
</svg>
