<svg width="218" height="164" viewBox="0 0 218 164" fill="none" xmlns="http://www.w3.org/2000/svg">
<path d="M39.4188 140.912H51.2028V143.816H43.0668V147.848H50.6988V150.776H43.0668V155.096H51.2028V158H39.4188V140.912ZM53.786 140.912H60.386C62.258 140.912 63.866 141.248 65.21 141.92C66.554 142.592 67.578 143.568 68.282 144.848C69.002 146.128 69.362 147.656 69.362 149.432C69.362 151.224 69.01 152.76 68.306 154.04C67.602 155.32 66.578 156.304 65.234 156.992C63.89 157.664 62.274 158 60.386 158H53.786V140.912ZM60.146 154.976C63.794 154.976 65.618 153.128 65.618 149.432C65.618 145.768 63.794 143.936 60.146 143.936H57.53V154.976H60.146ZM79.5497 158.216C77.1497 158.216 75.3257 157.6 74.0777 156.368C72.8297 155.136 72.2057 153.328 72.2057 150.944V140.912H75.8777V151.112C75.8777 152.472 76.1897 153.512 76.8137 154.232C77.4537 154.936 78.3657 155.288 79.5497 155.288C80.7337 155.288 81.6377 154.936 82.2617 154.232C82.8857 153.512 83.1977 152.472 83.1977 151.112V140.912H86.8937V150.944C86.8937 153.312 86.2617 155.12 84.9977 156.368C83.7497 157.6 81.9337 158.216 79.5497 158.216ZM98.2239 158.216C96.4959 158.216 94.9839 157.856 93.6879 157.136C92.4079 156.4 91.4239 155.376 90.7359 154.064C90.0479 152.736 89.7039 151.192 89.7039 149.432C89.7039 147.688 90.0479 146.16 90.7359 144.848C91.4239 143.52 92.4079 142.496 93.6879 141.776C94.9839 141.056 96.4959 140.696 98.2239 140.696C99.3599 140.696 100.44 140.872 101.464 141.224C102.504 141.56 103.352 142.04 104.008 142.664L102.832 145.352C102.064 144.776 101.312 144.36 100.576 144.104C99.8559 143.832 99.0959 143.696 98.2959 143.696C96.7599 143.696 95.5839 144.184 94.7679 145.16C93.9519 146.136 93.5439 147.56 93.5439 149.432C93.5439 151.32 93.9519 152.76 94.7679 153.752C95.5839 154.728 96.7599 155.216 98.2959 155.216C99.0959 155.216 99.8559 155.088 100.576 154.832C101.312 154.56 102.064 154.136 102.832 153.56L104.008 156.248C103.352 156.872 102.504 157.36 101.464 157.712C100.44 158.048 99.3599 158.216 98.2239 158.216ZM117.804 154.208H109.812L108.18 158H104.412L112.26 140.912H115.284L123.132 158H119.436L117.804 154.208ZM116.58 151.352L113.82 144.944L111.06 151.352H116.58ZM126.37 143.96H121.018V140.912H135.514V143.96H130.162V158H126.37V143.96ZM137.505 140.912H141.249V158H137.505V140.912ZM152.525 158.216C150.829 158.216 149.349 157.864 148.085 157.16C146.837 156.44 145.869 155.416 145.181 154.088C144.509 152.76 144.173 151.208 144.173 149.432C144.173 147.656 144.509 146.112 145.181 144.8C145.869 143.488 146.837 142.48 148.085 141.776C149.349 141.056 150.829 140.696 152.525 140.696C154.221 140.696 155.693 141.056 156.941 141.776C158.189 142.48 159.149 143.488 159.821 144.8C160.493 146.112 160.829 147.656 160.829 149.432C160.829 151.208 160.493 152.76 159.821 154.088C159.149 155.416 158.189 156.44 156.941 157.16C155.693 157.864 154.221 158.216 152.525 158.216ZM152.525 155.288C153.965 155.288 155.085 154.784 155.885 153.776C156.701 152.768 157.109 151.32 157.109 149.432C157.109 147.544 156.701 146.104 155.885 145.112C155.085 144.12 153.965 143.624 152.525 143.624C151.085 143.624 149.957 144.12 149.141 145.112C148.341 146.104 147.941 147.544 147.941 149.432C147.941 151.336 148.341 152.792 149.141 153.8C149.957 154.792 151.085 155.288 152.525 155.288ZM178.563 140.912V158H175.779L167.259 147.104V158H163.755V140.912H166.515L175.035 151.784V140.912H178.563Z" fill="#14697E"/>
<g clip-path="url(#clip0)">
<path fill-rule="evenodd" clip-rule="evenodd" d="M168.079 97.5669C167.64 97.1274 167.044 96.8802 166.422 96.8802H159.836V44.8416C159.836 38.626 154.779 33.5696 148.564 33.5696H137.567C137.489 27.7184 135.675 22.1172 132.3 17.3473C128.928 12.5802 124.264 8.98762 118.812 6.95881C117.6 6.50745 116.249 7.12452 115.798 8.33759C115.347 9.55067 115.965 10.9002 117.178 11.3515C126.574 14.8488 132.887 23.9364 132.887 33.9651C132.887 42.3376 128.993 47.1844 125.225 51.871C122.502 55.2575 119.699 58.7457 118.669 63.3261H116.375L118.948 29.0359C118.997 28.3858 118.772 27.745 118.329 27.2671C117.885 26.7892 117.263 26.5173 116.611 26.5173H100.921C100.269 26.5173 99.6462 26.7892 99.2021 27.2671C98.759 27.745 98.5347 28.3858 98.5832 29.0359L101.156 63.3261H98.8625C97.8316 58.7457 95.0291 55.2585 92.3064 51.871C88.539 47.1844 84.6443 42.3376 84.6443 33.9651C84.6443 23.9364 90.9569 14.8488 100.354 11.3515C101.567 10.9002 102.185 9.55067 101.733 8.33759C101.281 7.12452 99.9327 6.50745 98.7187 6.95881C93.2668 8.98762 88.603 12.5802 85.2302 17.3473C81.8565 22.1181 80.0428 27.7193 79.9641 33.5696H68.9677C62.7522 33.5696 57.6957 38.626 57.6957 44.8416V96.8811H51.1094C49.8148 96.8811 48.7656 97.9304 48.7656 99.2249C48.7656 108.017 55.9177 115.169 64.7096 115.169H152.822C161.613 115.169 168.766 108.016 168.766 99.2249C168.766 98.6023 168.519 98.0063 168.079 97.5669ZM103.683 68.0136H118.322V73.5809H99.2085V68.0136H103.683ZM118.031 78.2684C116.983 82.4085 113.227 85.481 108.766 85.481C104.304 85.481 100.548 82.4085 99.5006 78.2684H118.031ZM103.447 31.2048H114.085L111.674 63.3261H105.857L103.447 31.2048ZM62.3832 44.8416C62.3832 41.2106 65.3367 38.2571 68.9677 38.2571H80.2607C81.3521 45.7214 85.1973 50.5087 88.6525 54.8071C91.5749 58.4427 94.098 61.5866 94.5219 65.8054V75.9247C94.5219 83.779 100.911 90.1685 108.766 90.1685C116.62 90.1685 123.01 83.779 123.01 75.9247V65.8072C123.433 61.5875 125.957 58.4427 128.879 54.8071C132.335 50.5078 136.179 45.7214 137.271 38.2571H148.564C152.195 38.2571 155.148 41.2106 155.148 44.8416V96.8802H62.3832V44.8416ZM152.822 110.481H64.7096C59.3061 110.481 54.7797 106.654 53.6985 101.569L163.833 101.568C162.752 106.654 158.225 110.481 152.822 110.481Z" fill="#14697E"/>
<path fill-rule="evenodd" clip-rule="evenodd" d="M108.766 9.84364C110.057 9.84364 111.11 8.79078 111.11 7.49988C111.11 6.20899 110.057 5.15613 108.766 5.15613C107.475 5.15613 106.422 6.20899 106.422 7.49988C106.422 8.79078 107.475 9.84364 108.766 9.84364Z" fill="#14697E"/>
</g>
<defs>
<clipPath id="clip0">
<rect width="120" height="120" fill="white" transform="translate(49)"/>
</clipPath>
</defs>
</svg>
