<svg width="109" height="109" viewBox="0 0 109 109" fill="none" xmlns="http://www.w3.org/2000/svg">
<g clip-path="url(#clip0)">
<path fill-rule="evenodd" clip-rule="evenodd" d="M107.681 88.0482C107.285 87.6516 106.747 87.4285 106.186 87.4285H100.242V40.4668C100.242 34.8577 95.6789 30.2945 90.0698 30.2945H80.1462C80.0751 25.0142 78.4384 19.9595 75.393 15.6549C72.3501 11.3529 68.1405 8.11081 63.2204 6.27993C62.1265 5.87261 60.9079 6.42947 60.5006 7.5242C60.0932 8.61893 60.6509 9.83676 61.7457 10.2441C70.225 13.4002 75.9226 21.6012 75.9226 30.6514C75.9226 38.2071 72.4079 42.5811 69.008 46.8104C66.5509 49.8666 64.021 53.0145 63.0916 57.148H61.0211L63.3435 26.2031C63.3873 25.6165 63.1849 25.0382 62.785 24.6069C62.3843 24.1756 61.8225 23.9302 61.2342 23.9302H47.0747C46.4864 23.9302 45.9246 24.1756 45.5239 24.6069C45.124 25.0382 44.9216 25.6165 44.9653 26.2031L47.287 57.148H45.2173C44.287 53.0145 41.758 49.8674 39.3009 46.8104C35.901 42.5811 32.3863 38.2071 32.3863 30.6514C32.3863 21.6012 38.083 13.4002 46.5632 10.2441C47.658 9.83676 48.2157 8.61893 47.8075 7.5242C47.4002 6.42947 46.1832 5.87261 45.0876 6.27993C40.1675 8.11081 35.9588 11.3529 32.9151 15.6549C29.8705 19.9603 28.2338 25.015 28.1627 30.2945H18.2391C12.63 30.2945 8.06684 34.8577 8.06684 40.4668V87.4294H2.12309C0.954831 87.4294 0.00799561 88.3762 0.00799561 89.5445C0.00799561 97.4786 6.46234 103.933 14.3964 103.933H93.9125C101.846 103.933 108.301 97.4777 108.301 89.5445C108.301 88.9826 108.078 88.4448 107.681 88.0482ZM49.5673 61.3782H62.7784V66.4023H45.5296V61.3782H49.5673ZM62.5157 70.6325C61.5697 74.3687 58.1806 77.1414 54.1544 77.1414C50.1283 77.1414 46.7384 74.3687 45.7932 70.6325H62.5157ZM49.3542 28.1604H58.9547L56.7793 57.148H51.5296L49.3542 28.1604ZM12.297 40.4668C12.297 37.1901 14.9624 34.5247 18.2391 34.5247H28.4304C29.4153 41.2608 32.8853 45.5811 36.0035 49.4601C38.6407 52.741 40.9177 55.5782 41.3003 59.3854V68.5174C41.3003 75.6055 47.0664 81.3716 54.1544 81.3716C61.2425 81.3716 67.0094 75.6055 67.0094 68.5174V59.387C67.3903 55.579 69.6682 52.741 72.3054 49.4601C75.4244 45.5802 78.8936 41.2608 79.8785 34.5247H90.0698C93.3465 34.5247 96.0119 37.1901 96.0119 40.4668V87.4285H12.297V40.4668ZM93.9125 99.7027H14.3964C9.52014 99.7027 5.43536 96.2483 4.45961 91.6596L103.849 91.6587C102.874 96.2483 98.7887 99.7027 93.9125 99.7027Z" fill="#14697E"/>
<path fill-rule="evenodd" clip-rule="evenodd" d="M54.1545 8.8833C55.3194 8.8833 56.2696 7.93316 56.2696 6.7682C56.2696 5.60325 55.3194 4.65311 54.1545 4.65311C52.9895 4.65311 52.0394 5.60325 52.0394 6.7682C52.0394 7.93316 52.9895 8.8833 54.1545 8.8833Z" fill="#14697E"/>
</g>
<defs>
<clipPath id="clip0">
<rect x="0.219482" width="108.293" height="108.293" fill="white"/>
</clipPath>
</defs>
</svg>
