<svg width="309" height="87" viewBox="0 0 309 87" fill="none" xmlns="http://www.w3.org/2000/svg">
<g opacity="0.9">
<path opacity="0.9" d="M104.676 0H11.7725C5.27605 0 0 5.27604 0 11.7725V58.6185C0 65.115 5.27605 70.3911 11.7725 70.3911H104.676C111.172 70.3911 116.449 65.115 116.449 58.6185V11.7725C116.449 5.27604 111.172 0 104.676 0ZM110.065 58.6185C110.065 61.6039 107.643 64.0072 104.676 64.0072H11.7725C8.78715 64.0072 6.38383 61.5851 6.38383 58.6185V11.7725C6.38383 8.78715 8.80593 6.38383 11.7725 6.38383H104.676C107.661 6.38383 110.065 8.80592 110.065 11.7725V58.6185Z" fill="white"/>
<path opacity="0.9" d="M70.3911 81.957H68.1755C67.0489 81.957 66.1289 80.8868 66.1289 79.5724V77.094C66.1289 75.7797 65.2089 74.7095 64.0823 74.7095H52.3474C51.2208 74.7095 50.3008 75.7797 50.3008 77.094V79.5724C50.3008 80.8868 49.3808 81.957 48.2542 81.957H46.0386C44.9121 81.957 43.9921 83.0272 43.9921 84.3415C43.9921 85.6559 44.9121 86.7261 46.0386 86.7261H50.3008H66.1101H70.3723C71.4988 86.7261 72.4189 85.6559 72.4189 84.3415C72.4376 83.0272 71.5176 81.957 70.3911 81.957Z" fill="white"/>
<path opacity="0.9" d="M81.2436 30.4922L80.4174 30.342L77.4508 29.7599C77.2631 29.7224 77.1316 29.5909 77.0753 29.422C76.9814 29.1028 76.85 28.8211 76.7373 28.5207C76.2679 27.1688 75.7047 25.8733 74.9724 24.6716C74.8785 24.5027 74.8785 24.3149 74.9912 24.1459L77.1316 20.9728C77.2443 20.8038 77.2443 20.5597 77.1129 20.3907C75.6108 18.4005 73.8271 16.6543 71.7993 15.1898C71.6678 15.0959 71.5176 15.0959 71.3862 15.1334C71.3299 15.1522 71.2735 15.1522 71.236 15.171L67.9502 17.3866C67.8188 17.4992 67.6122 17.518 67.462 17.4241C66.2228 16.7482 64.9085 16.1849 63.5191 15.7718C63.3125 15.7155 63.1248 15.7906 62.9933 15.9408C62.9182 16.0347 62.8619 16.1286 62.8619 16.26V27.1876C62.8619 27.3378 62.937 27.488 63.0497 27.5631C64.7583 28.8587 65.9599 30.7738 66.373 32.9706C66.4669 33.4963 66.542 34.0408 66.542 34.5853C66.542 37.8711 64.7395 40.7439 62.0733 42.2647C61.7541 42.4525 61.3598 42.1896 61.3411 41.8329L61.3035 36.8385C61.3035 36.2376 60.928 35.6931 60.3835 35.4678L59.0316 34.9045C58.2618 34.5853 57.3981 34.5666 56.6095 34.867L54.9948 35.4678C54.9385 35.4866 54.9009 35.5241 54.8446 35.5617C54.3564 35.8246 54.0372 36.3127 54.0372 36.876L54.056 39.8989L54.0748 41.8329C54.0748 42.2084 53.6805 42.4712 53.3425 42.2835C50.6575 40.7626 48.855 37.8899 48.855 34.5853C48.855 32.1257 49.8689 29.9101 51.4837 28.2954C51.7465 28.0325 52.0282 27.7884 52.3286 27.5631C52.4413 27.4693 52.5164 27.3378 52.5164 27.1876V27.0937V16.26C52.5164 16.0535 52.3661 15.8845 52.1972 15.8094C52.1033 15.7718 51.9906 15.7531 51.878 15.7906C50.789 16.1098 49.7375 16.5604 48.7236 17.0674C48.4607 17.1988 48.1791 17.3115 47.935 17.4429C47.766 17.5368 47.5783 17.518 47.4281 17.4241L44.5929 15.509L44.161 15.2085C43.9921 15.0959 43.748 15.0959 43.579 15.2085C41.5512 16.6543 39.7675 18.4192 38.2654 20.4095C38.134 20.5785 38.134 20.8226 38.2466 20.9915L40.3871 24.1647C40.4997 24.3149 40.4997 24.5214 40.4059 24.6904C39.636 25.9484 39.0352 27.319 38.5658 28.746C38.4907 28.9713 38.3781 29.1966 38.3217 29.4407C38.2654 29.6097 38.134 29.7411 37.9462 29.7787L36.0686 30.1354L34.1722 30.511C33.9657 30.5485 33.7967 30.7175 33.7592 30.924C33.5339 32.2383 33.4212 33.5902 33.4212 34.9796C33.4212 36.0874 33.4963 37.1764 33.6465 38.2467C33.6841 38.4532 33.8343 38.6222 34.0596 38.6785L37.6646 39.3732C37.8523 39.4108 38.0025 39.561 38.0401 39.7487C38.4719 41.6263 39.1666 43.41 40.1054 45.0435C40.1993 45.2125 40.1993 45.4003 40.0867 45.5505L38.0213 48.611C37.9087 48.78 37.9087 49.0241 38.0213 49.193C39.4295 51.1457 41.1381 52.8919 43.072 54.3564C43.241 54.4879 43.4851 54.4879 43.6729 54.3752L46.6207 52.385C46.7709 52.2723 46.9774 52.2723 47.1464 52.385C48.8363 53.4364 50.7139 54.2438 52.6853 54.7507C52.8731 54.807 53.0045 54.9385 53.0421 55.1262L53.718 58.6373C53.7556 58.8439 53.9246 59.0129 54.1311 59.0504C55.2952 59.2194 56.4969 59.3133 57.7173 59.3133C58.9377 59.3133 60.1394 59.2194 61.3035 59.0504C61.51 59.0129 61.679 58.8627 61.7166 58.6373L62.3925 55.1262C62.4301 54.9385 62.5615 54.7883 62.7493 54.7507C64.7395 54.2438 66.5983 53.4364 68.3069 52.385C68.4759 52.2911 68.6825 52.2911 68.8327 52.385L71.7805 54.3752C71.9683 54.4879 72.1936 54.4879 72.3813 54.3564C74.3152 52.8919 76.0051 51.1457 77.4321 49.193C77.5635 49.0241 77.5635 48.78 77.4321 48.611L76.1553 46.7146L75.3667 45.5505C75.254 45.4003 75.254 45.1938 75.3479 45.0435C75.423 44.8933 75.4981 44.7244 75.5732 44.5742C76.3806 43.0721 77.019 41.4573 77.4133 39.7487C77.4508 39.561 77.601 39.4108 77.7888 39.3732L81.3938 38.6785C81.6003 38.6409 81.7693 38.472 81.8069 38.2467C81.9571 37.1764 82.0322 36.0874 82.0322 34.9796C82.0322 33.5902 81.9195 32.2383 81.6942 30.924C81.6191 30.6987 81.4501 30.5297 81.2436 30.4922Z" fill="white"/>
</g>
<path d="M127.538 4.08203H136.601C138.768 4.08203 140.677 4.4948 142.346 5.32033C144.014 6.14587 145.304 7.31537 146.232 8.81165C147.161 10.3079 147.608 12.0622 147.608 14.0572C147.608 16.0523 147.144 17.8065 146.232 19.3028C145.304 20.7991 144.014 21.9686 142.346 22.7941C140.677 23.6196 138.768 24.0324 136.601 24.0324H127.538V4.08203ZM136.378 20.2487C138.373 20.2487 139.972 19.6984 141.159 18.5805C142.346 17.4625 142.947 15.9663 142.947 14.0572C142.947 12.1482 142.346 10.6519 141.159 9.53398C139.972 8.41608 138.373 7.86572 136.378 7.86572H132.164V20.2487H136.378Z" fill="white"/>
<path d="M154.281 23.4819C153.748 22.9488 153.49 22.278 153.49 21.4869C153.49 20.6614 153.748 20.0078 154.281 19.5091C154.814 19.0103 155.468 18.7523 156.242 18.7523C157.016 18.7523 157.669 19.0103 158.203 19.5091C158.736 20.0078 158.994 20.6786 158.994 21.4869C158.994 22.278 158.736 22.9488 158.203 23.4819C157.669 24.0151 157.016 24.2731 156.242 24.2731C155.468 24.2731 154.814 24.0151 154.281 23.4819Z" fill="white"/>
<path d="M167.008 4.08203H176.072C178.239 4.08203 180.148 4.4948 181.816 5.32033C183.485 6.14587 184.774 7.31537 185.703 8.81165C186.632 10.3079 187.079 12.0622 187.079 14.0572C187.079 16.0523 186.615 17.8065 185.703 19.3028C184.774 20.7991 183.485 21.9686 181.816 22.7941C180.148 23.6196 178.239 24.0324 176.072 24.0324H167.008V4.08203ZM175.848 20.2487C177.843 20.2487 179.443 19.6984 180.63 18.5805C181.816 17.4625 182.418 15.9663 182.418 14.0572C182.418 12.1482 181.816 10.6519 180.63 9.53398C179.443 8.41608 177.843 7.86572 175.848 7.86572H171.635V20.2487H175.848Z" fill="white"/>
<path d="M210.142 20.3347V24.0496H194.681V4.08203H209.764V7.79693H199.273V12.131H208.543V15.7255H199.273V20.3519H210.142V20.3347Z" fill="white"/>
<path d="M221.734 23.0693C220.083 22.1921 218.793 20.9538 217.847 19.3888C216.901 17.8237 216.437 16.0522 216.437 14.0744C216.437 12.0966 216.901 10.3251 217.847 8.76004C218.793 7.19497 220.083 5.97386 221.734 5.07954C223.385 4.20241 225.226 3.75525 227.289 3.75525C229.026 3.75525 230.592 4.06482 231.985 4.66677C233.378 5.26872 234.564 6.14585 235.51 7.29816L232.552 10.0327C231.194 8.46766 229.525 7.69372 227.53 7.69372C226.292 7.69372 225.191 7.9689 224.228 8.50206C223.265 9.03522 222.508 9.79195 221.958 10.7723C221.408 11.7354 221.15 12.8533 221.15 14.0744C221.15 15.3127 221.425 16.4134 221.958 17.3765C222.491 18.3397 223.248 19.0964 224.228 19.6468C225.191 20.1971 226.292 20.4551 227.53 20.4551C229.525 20.4551 231.194 19.664 232.552 18.0817L235.51 20.8163C234.564 21.9686 233.378 22.8629 231.967 23.4648C230.557 24.0668 228.992 24.3764 227.255 24.3764C225.226 24.3936 223.385 23.9464 221.734 23.0693Z" fill="white"/>
<path d="M249.837 16.207L247.154 19.0104V24.0668H242.562V4.08203H247.154V13.4037L255.994 4.08203H261.136L252.864 12.9737L261.618 24.0324H256.235L249.837 16.207Z" fill="white"/>
<path d="M283.391 20.3347V24.0496H267.93V4.08203H283.013V7.79693H272.522V12.131H281.792V15.7255H272.522V20.3519H283.391V20.3347Z" fill="white"/>
<path d="M304.047 24.0496L300.194 18.4945H299.971H295.946V24.0496H291.32V4.08203H299.971C301.742 4.08203 303.273 4.3744 304.58 4.95916C305.887 5.54391 306.885 6.38665 307.59 7.47016C308.295 8.55367 308.639 9.84356 308.639 11.3226C308.639 12.8017 308.278 14.0916 307.572 15.1579C306.867 16.2242 305.853 17.0498 304.528 17.6173L309 24.0324H304.047V24.0496ZM302.877 8.74285C302.155 8.1409 301.106 7.84852 299.713 7.84852H295.946V14.814H299.713C301.106 14.814 302.155 14.5044 302.877 13.9024C303.6 13.3005 303.961 12.4406 303.961 11.3398C303.961 10.2047 303.6 9.3448 302.877 8.74285Z" fill="white"/>
<path d="M131.493 61.7609C132.095 62.2769 132.405 62.982 132.405 63.8764C132.405 64.7707 132.095 65.4758 131.493 65.9918C130.891 66.5077 130.049 66.7485 128.965 66.7485H126.712V69.3971H125.818V60.987H128.965C130.031 60.987 130.874 61.245 131.493 61.7609ZM130.857 65.407C131.304 65.0459 131.51 64.5299 131.51 63.8592C131.51 63.1712 131.287 62.6553 130.857 62.2941C130.41 61.9329 129.773 61.7437 128.948 61.7437H126.712V65.9402H128.948C129.773 65.9574 130.41 65.7854 130.857 65.407Z" fill="white"/>
<path d="M136.98 68.9206C136.309 68.5422 135.776 68.0435 135.397 67.3899C135.019 66.7364 134.83 66.014 134.83 65.2057C134.83 64.3973 135.019 63.675 135.397 63.0215C135.776 62.3679 136.309 61.8692 136.98 61.4908C137.65 61.1124 138.407 60.9404 139.25 60.9404C140.093 60.9404 140.832 61.1296 141.503 61.4908C142.174 61.852 142.69 62.3679 143.085 63.0215C143.463 63.675 143.67 64.3973 143.67 65.2057C143.67 66.014 143.481 66.7536 143.085 67.3899C142.69 68.0263 142.174 68.5594 141.503 68.9206C140.832 69.2817 140.075 69.4709 139.25 69.4709C138.424 69.4709 137.65 69.2817 136.98 68.9206ZM141.038 68.2326C141.572 67.9403 142.002 67.5103 142.294 66.9771C142.604 66.444 142.758 65.842 142.758 65.1885C142.758 64.5349 142.604 63.933 142.294 63.3998C141.984 62.8667 141.572 62.4539 141.038 62.1443C140.505 61.852 139.903 61.6972 139.233 61.6972C138.562 61.6972 137.96 61.852 137.427 62.1443C136.894 62.4367 136.464 62.8667 136.154 63.3998C135.844 63.933 135.69 64.5349 135.69 65.1885C135.69 65.842 135.844 66.444 136.154 66.9771C136.464 67.5103 136.894 67.9231 137.427 68.2326C137.96 68.525 138.562 68.6798 139.233 68.6798C139.903 68.6798 140.505 68.525 141.038 68.2326Z" fill="white"/>
<path d="M146.697 60.992H147.591V68.6282H152.304V69.4021H146.714V60.992H146.697Z" fill="white"/>
<path d="M157.463 65.4464L155.743 67.1835V69.3849H154.849V60.9748H155.743V66.0484L160.679 60.9748H161.694L158.048 64.7757L161.935 69.3677H160.903L157.463 65.4464Z" fill="white"/>
<path d="M168.109 66.7707C167.937 66.5987 167.851 66.3752 167.851 66.1172C167.851 65.8592 167.937 65.6528 168.109 65.4808C168.281 65.3088 168.505 65.2228 168.745 65.2228C168.986 65.2228 169.21 65.3088 169.382 65.4808C169.554 65.6528 169.64 65.8592 169.64 66.1172C169.64 66.3752 169.554 66.5987 169.382 66.7707C169.21 66.9427 168.986 67.0459 168.745 67.0459C168.505 67.0287 168.281 66.9427 168.109 66.7707Z" fill="white"/>
<path d="M185.566 60.992V69.4021H184.706V62.6775L181.404 68.3358H180.991L177.689 62.7119V69.4021H176.829V60.992H177.568L181.214 67.2179L184.826 60.992H185.566Z" fill="white"/>
<path d="M194.681 67.1491H190.003L188.988 69.4021H188.059L191.895 60.992H192.772L196.607 69.4021H195.678L194.681 67.1491ZM194.354 66.4268L192.342 61.9035L190.33 66.4268H194.354Z" fill="white"/>
<path d="M204.88 69.4021L202.953 66.7019C202.73 66.7191 202.506 66.7363 202.283 66.7363H200.03V69.4021H199.135V60.992H202.283C203.349 60.992 204.192 61.25 204.811 61.7659C205.413 62.2819 205.722 62.987 205.722 63.8814C205.722 64.5349 205.55 65.0853 205.224 65.5496C204.897 65.9968 204.415 66.3236 203.796 66.53L205.843 69.4193H204.88V69.4021ZM204.157 65.4292C204.605 65.0681 204.811 64.5521 204.811 63.8814C204.811 63.1934 204.587 62.6775 204.157 62.3163C203.71 61.9551 203.074 61.7659 202.248 61.7659H200.013V65.9796H202.248C203.091 65.9796 203.727 65.7904 204.157 65.4292Z" fill="white"/>
<path d="M208.853 60.992H209.747V69.4021H208.853V60.992Z" fill="white"/>
<path d="M214.975 68.9206C214.305 68.5422 213.771 68.0435 213.393 67.3899C213.015 66.7364 212.825 66.014 212.825 65.2057C212.825 64.3973 213.015 63.675 213.393 63.0215C213.771 62.3679 214.305 61.8692 214.975 61.4908C215.646 61.1124 216.403 60.9404 217.245 60.9404C218.088 60.9404 218.828 61.1296 219.498 61.4908C220.169 61.852 220.685 62.3679 221.081 63.0215C221.459 63.675 221.666 64.3973 221.666 65.2057C221.666 66.014 221.476 66.7536 221.081 67.3899C220.702 68.0435 220.169 68.5594 219.498 68.9206C218.828 69.2817 218.071 69.4709 217.245 69.4709C216.42 69.4709 215.646 69.2817 214.975 68.9206ZM219.034 68.2326C219.567 67.9403 219.997 67.5103 220.29 66.9771C220.599 66.444 220.754 65.842 220.754 65.1885C220.754 64.5349 220.599 63.933 220.29 63.3998C219.98 62.8667 219.567 62.4539 219.034 62.1443C218.501 61.852 217.899 61.6972 217.228 61.6972C216.558 61.6972 215.956 61.852 215.422 62.1443C214.889 62.4367 214.459 62.8667 214.15 63.3998C213.84 63.933 213.685 64.5349 213.685 65.1885C213.685 65.842 213.84 66.444 214.15 66.9771C214.459 67.5103 214.889 67.9231 215.422 68.2326C215.956 68.525 216.558 68.6798 217.228 68.6798C217.899 68.6798 218.501 68.525 219.034 68.2326Z" fill="white"/>
<path d="M231.727 60.992V69.4021H230.987L225.587 62.5743V69.4021H224.692V60.992H225.432L230.85 67.8198V60.992H231.727Z" fill="white"/>
<path d="M239.174 66.7707C239.002 66.5987 238.916 66.3752 238.916 66.1172C238.916 65.8592 239.002 65.6528 239.174 65.4808C239.346 65.3088 239.569 65.2228 239.81 65.2228C240.051 65.2228 240.274 65.3088 240.446 65.4808C240.618 65.6528 240.704 65.8592 240.704 66.1172C240.704 66.3752 240.618 66.5987 240.446 66.7707C240.274 66.9427 240.051 67.0459 239.81 67.0459C239.569 67.0459 239.363 66.9427 239.174 66.7707Z" fill="white"/>
<path d="M250.783 66.4956V69.4021H249.906V66.4956L246.535 60.992H247.481L250.37 65.7044L253.259 60.992H254.154L250.783 66.4956Z" fill="white"/>
<path d="M261.136 67.1491H256.458L255.444 69.4021H254.515L258.35 60.992H259.227L263.063 69.4021H262.134L261.136 67.1491ZM260.81 66.4268L258.797 61.9035L256.785 66.4268H260.81Z" fill="white"/>
<path d="M274.328 60.992V69.4021H273.468V62.6775L270.166 68.3358H269.753L266.451 62.7119V69.4021H265.591V60.992H266.33L269.976 67.2179L273.588 60.992H274.328Z" fill="white"/>
<path d="M285.042 60.992V69.4021H284.165V65.5152H278.902V69.4021H278.025V60.992H278.92V64.7413H284.182V60.992H285.042Z" fill="white"/>
<path d="M288.74 60.992H289.634V69.4021H288.74V60.992Z" fill="white"/>
<path d="M293.332 60.992H294.226V68.6282H298.939V69.4021H293.332V60.992Z" fill="white"/>
<path d="M301.484 60.992H302.379V68.6282H307.091V69.4021H301.501V60.992H301.484Z" fill="white"/>
<line x1="125.666" y1="56.3078" x2="307.279" y2="56.3078" stroke="white"/>
<path d="M131.218 49.7615C129.808 48.9876 128.707 47.9213 127.916 46.5454C127.125 45.1695 126.712 43.6388 126.712 41.9361C126.712 40.2335 127.108 38.7028 127.916 37.3269C128.707 35.951 129.825 34.8847 131.235 34.1108C132.646 33.3369 134.228 32.9413 135.982 32.9413C137.289 32.9413 138.51 33.1649 139.611 33.5948C140.729 34.0248 141.658 34.6783 142.432 35.5211L141.245 36.7078C139.869 35.3147 138.115 34.6095 136.016 34.6095C134.623 34.6095 133.351 34.9363 132.198 35.5727C131.046 36.209 130.152 37.0861 129.515 38.2041C128.862 39.322 128.552 40.5603 128.552 41.9361C128.552 43.312 128.879 44.5675 129.515 45.6682C130.169 46.7861 131.063 47.6461 132.198 48.2996C133.333 48.9532 134.606 49.2628 136.016 49.2628C138.132 49.2628 139.886 48.5576 141.245 47.1473L142.432 48.334C141.658 49.1768 140.712 49.8131 139.594 50.2603C138.476 50.7074 137.255 50.931 135.948 50.931C134.193 50.931 132.611 50.5354 131.218 49.7615Z" fill="white"/>
<path d="M150.584 49.7443C149.156 48.9532 148.055 47.8869 147.247 46.5282C146.456 45.1695 146.043 43.6388 146.043 41.9362C146.043 40.2335 146.439 38.7028 147.247 37.3441C148.038 35.9855 149.156 34.9019 150.584 34.128C152.011 33.3369 153.593 32.9585 155.348 32.9585C157.102 32.9585 158.684 33.3541 160.077 34.128C161.488 34.9019 162.588 35.9683 163.397 37.3441C164.205 38.72 164.6 40.2507 164.6 41.9534C164.6 43.656 164.205 45.1867 163.397 46.5626C162.588 47.9385 161.488 49.0048 160.077 49.7787C158.667 50.5527 157.102 50.9482 155.348 50.9482C153.593 50.931 152.011 50.5355 150.584 49.7443ZM159.131 48.3168C160.266 47.6805 161.144 46.8034 161.78 45.6855C162.416 44.5676 162.743 43.3121 162.743 41.9362C162.743 40.5603 162.416 39.3048 161.78 38.1869C161.144 37.069 160.249 36.1918 159.131 35.5555C157.996 34.9191 156.741 34.6096 155.348 34.6096C153.955 34.6096 152.682 34.9191 151.547 35.5555C150.412 36.1918 149.517 37.069 148.864 38.1869C148.21 39.3048 147.901 40.5603 147.901 41.9362C147.901 43.3121 148.227 44.5676 148.864 45.6855C149.517 46.8034 150.412 47.6805 151.547 48.3168C152.682 48.9532 153.955 49.2628 155.348 49.2628C156.741 49.2628 157.996 48.936 159.131 48.3168Z" fill="white"/>
<path d="M185.153 33.0961V50.7763H183.605L172.254 36.4327V50.7763H170.379V33.0961H171.927L183.313 47.4398V33.0961H185.153Z" fill="white"/>
<path d="M193.597 50.2947C192.393 49.8819 191.465 49.3143 190.811 48.6264L191.551 47.1817C192.187 47.8181 193.047 48.334 194.096 48.7296C195.162 49.1252 196.246 49.3143 197.381 49.3143C198.963 49.3143 200.15 49.022 200.941 48.4372C201.732 47.8525 202.128 47.0957 202.128 46.1842C202.128 45.4791 201.904 44.9115 201.491 44.4987C201.079 44.086 200.528 43.7592 199.909 43.5356C199.29 43.312 198.413 43.0541 197.312 42.7961C195.988 42.4521 194.922 42.1425 194.13 41.8158C193.339 41.5062 192.669 41.0246 192.101 40.3883C191.533 39.7519 191.258 38.8748 191.258 37.7913C191.258 36.897 191.499 36.0886 191.963 35.3491C192.428 34.6095 193.15 34.0248 194.13 33.5948C195.111 33.1649 196.315 32.9413 197.759 32.9413C198.774 32.9413 199.754 33.0789 200.718 33.354C201.681 33.6292 202.523 34.0076 203.229 34.5064L202.592 36.0026C201.853 35.5211 201.061 35.1427 200.219 34.9019C199.376 34.6611 198.55 34.5408 197.742 34.5408C196.194 34.5408 195.025 34.8331 194.251 35.4351C193.46 36.037 193.081 36.811 193.081 37.7397C193.081 38.4448 193.288 39.0124 193.718 39.4424C194.148 39.8723 194.681 40.1991 195.334 40.4227C195.988 40.6463 196.848 40.9042 197.949 41.1622C199.238 41.489 200.288 41.7986 201.096 42.1081C201.904 42.4177 202.575 42.8993 203.125 43.5184C203.676 44.1548 203.951 44.9975 203.951 46.081C203.951 46.9753 203.71 47.7837 203.229 48.5232C202.747 49.2628 202.007 49.8303 201.027 50.2603C200.03 50.6902 198.808 50.8966 197.364 50.8966C196.057 50.931 194.801 50.7246 193.597 50.2947Z" fill="white"/>
<path d="M211.157 48.9532C209.885 47.6461 209.231 45.7371 209.231 43.2261V33.0961H211.106V43.1401C211.106 45.1868 211.57 46.7174 212.499 47.7321C213.427 48.7469 214.769 49.2456 216.506 49.2456C218.277 49.2456 219.619 48.7469 220.548 47.7321C221.476 46.7174 221.941 45.1868 221.941 43.1401V33.0961H223.764V43.2261C223.764 45.7371 223.127 47.6461 221.855 48.9532C220.582 50.2603 218.811 50.9311 216.523 50.9311C214.236 50.9311 212.43 50.2775 211.157 48.9532Z" fill="white"/>
<path d="M230.729 33.0961H232.604V49.1596H242.493V50.7763H230.729V33.0961Z" fill="white"/>
<path d="M248.942 34.7128H242.734V33.0961H257.026V34.7128H250.817V50.7763H248.942V34.7128Z" fill="white"/>
<path d="M261.687 33.0961H263.561V50.7763H261.687V33.0961Z" fill="white"/>
<path d="M285.438 33.0961V50.7763H283.89L272.522 36.4327V50.7763H270.647V33.0961H272.195L283.581 47.4398V33.0961H285.438Z" fill="white"/>
<path d="M305.268 41.9361H307.057V48.678C306.231 49.4003 305.251 49.9507 304.133 50.3463C303.015 50.7418 301.811 50.931 300.573 50.931C298.801 50.931 297.219 50.5526 295.809 49.7615C294.398 48.9876 293.281 47.9213 292.472 46.5454C291.664 45.1695 291.268 43.6388 291.268 41.9361C291.268 40.2335 291.664 38.7028 292.472 37.3269C293.281 35.951 294.398 34.8847 295.809 34.1108C297.219 33.3369 298.818 32.9413 300.607 32.9413C301.949 32.9413 303.187 33.1477 304.322 33.5776C305.457 34.0076 306.403 34.6439 307.177 35.4867L306.008 36.6734C304.614 35.2975 302.843 34.6095 300.676 34.6095C299.248 34.6095 297.959 34.9191 296.806 35.5555C295.654 36.1918 294.742 37.0689 294.089 38.1868C293.435 39.3048 293.109 40.5603 293.109 41.9361C293.109 43.312 293.435 44.5675 294.089 45.6682C294.742 46.7861 295.637 47.6461 296.789 48.2996C297.941 48.9532 299.214 49.2628 300.659 49.2628C302.482 49.2628 304.012 48.8156 305.285 47.9041V41.9361H305.268Z" fill="white"/>
</svg>
