<svg width="38" height="43" viewBox="0 0 38 43" fill="none" xmlns="http://www.w3.org/2000/svg">
<g clip-path="url(#clip0)">
<path d="M18.9996 5.32162C14.7026 5.32162 11.2067 9.23459 11.2067 14.0442C11.2067 17.0301 12.552 19.7775 14.8053 21.3934C17.1063 23.0435 19.9309 23.2189 22.5557 21.8672C23.1142 21.5796 23.3587 20.8396 23.1017 20.2144C22.8448 19.5892 22.1837 19.3155 21.625 19.6031C19.7058 20.5915 17.6578 20.4791 16.0065 19.295C14.3952 18.1396 13.4332 16.1766 13.4332 14.0442C13.4332 10.6088 15.9303 7.8138 18.9996 7.8138C22.0689 7.8138 24.566 10.6088 24.566 14.0442C24.566 14.7313 24.0666 15.2903 23.4528 15.2903C22.8918 15.2903 22.3678 14.8142 22.3396 14.0632C22.3396 14.0569 22.3395 14.0506 22.3395 14.0442C22.3395 11.983 20.8412 10.306 18.9996 10.306C17.158 10.306 15.6598 11.983 15.6598 14.0442C15.6598 16.1055 17.158 17.7825 18.9996 17.7825C19.8543 17.7825 20.6347 17.4209 21.2261 16.8277C21.8174 17.421 22.598 17.7825 23.4528 17.7825C25.2943 17.7825 26.7926 16.1055 26.7926 14.0442C26.7926 9.23459 23.2967 5.32162 18.9996 5.32162ZM20.0973 14.2441C20.0113 14.8363 19.5526 15.2903 18.9996 15.2903C18.3858 15.2903 17.8864 14.7313 17.8864 14.0442C17.8864 13.3571 18.3858 12.7982 18.9996 12.7982C19.5704 12.7982 20.0417 13.2816 20.1051 13.9018C20.0885 14.015 20.0858 14.1302 20.0973 14.2441Z" fill="white"/>
<path d="M35.6988 16.7006C35.6985 16.3783 35.5826 16.0563 35.3727 15.8214L31.2457 11.2021V1.58337C31.2457 0.895195 30.7473 0.33728 30.1324 0.33728H7.86682C7.25199 0.33728 6.75354 0.895195 6.75354 1.58337V11.2021L2.62653 15.8214C2.62267 15.8257 2.61941 15.8306 2.61562 15.835C2.40699 16.0755 2.30093 16.3923 2.30049 16.7006C2.30049 16.7014 2.30042 16.7022 2.30042 16.703V39.1322C2.30042 41.1961 3.80082 42.8704 5.64026 42.8704H32.359C34.2025 42.8704 35.6989 41.1918 35.6989 39.1322V16.703C35.6989 16.7022 35.6988 16.7014 35.6988 16.7006ZM31.2457 14.7265L33.0112 16.7026L31.2457 18.6786V14.7265ZM8.9801 11.7186C8.9801 11.7184 8.9801 11.7181 8.9801 11.7178V2.82946H29.0192V11.7178C29.0192 11.7181 29.0192 11.7184 29.0192 11.7186V21.1708L22.9916 27.9174H15.0076L8.9801 21.1708V11.7186ZM6.75354 14.7265V18.6786L4.9881 16.7026L6.75354 14.7265ZM4.52698 38.616V19.7109L12.9721 29.1634L4.52698 38.616ZM6.10145 40.3782L15.0076 30.4095H22.9916L31.8978 40.3782H6.10145ZM33.4723 38.616L25.0272 29.1634L33.4723 19.7109V38.616Z" fill="white"/>
</g>
<defs>
<clipPath id="clip0">
<rect x="-0.000366211" y="0.33728" width="38" height="42.5331" fill="white"/>
</clipPath>
</defs>
</svg>
