<svg width="120" height="120" viewBox="0 0 120 120" fill="none" xmlns="http://www.w3.org/2000/svg">
<path fill-rule="evenodd" clip-rule="evenodd" d="M117.656 7.26562H2.34375C1.04919 7.26562 0 8.31482 0 9.60938V110.323C0 111.617 1.04919 112.667 2.34375 112.667H50.625C51.9196 112.667 52.9688 111.617 52.9688 110.323C52.9688 109.028 51.9196 107.979 50.625 107.979H4.6875V29.5825H115.312V107.978H69.375C68.0804 107.978 67.0312 109.027 67.0312 110.322C67.0312 111.617 68.0804 112.666 69.375 112.666H117.656C118.951 112.666 120 111.617 120 110.322V9.60938C120 8.31482 118.951 7.26562 117.656 7.26562ZM4.6875 24.895V11.9531H115.312V24.8959H4.6875V24.895Z" fill="#14697E"/>
<path fill-rule="evenodd" clip-rule="evenodd" d="M97.9477 16.0803H94.3414C93.0469 16.0803 91.9977 17.1304 91.9977 18.4241C91.9977 19.7186 93.0469 20.7678 94.3414 20.7678H97.9477C99.2422 20.7678 100.291 19.7186 100.291 18.4241C100.291 17.1304 99.2422 16.0803 97.9477 16.0803Z" fill="#14697E"/>
<path fill-rule="evenodd" clip-rule="evenodd" d="M108.733 16.0803H105.126C103.832 16.0803 102.783 17.1304 102.783 18.4241C102.783 19.7186 103.832 20.7678 105.126 20.7678H108.733C110.027 20.7678 111.076 19.7186 111.076 18.4241C111.076 17.1304 110.027 16.0803 108.733 16.0803Z" fill="#14697E"/>
<path fill-rule="evenodd" clip-rule="evenodd" d="M87.1637 16.0803H83.5565C82.262 16.0803 81.2128 17.1304 81.2128 18.4241C81.2128 19.7186 82.262 20.7678 83.5565 20.7678H87.1637C88.4583 20.7678 89.5074 19.7186 89.5074 18.4241C89.5074 17.1304 88.4583 16.0803 87.1637 16.0803Z" fill="#14697E"/>
<path fill-rule="evenodd" clip-rule="evenodd" d="M79.5776 75.4788V98.139C79.5776 99.4336 80.6277 100.483 81.9214 100.483H104.583C105.877 100.483 106.926 99.4336 106.926 98.139V75.4788C106.926 74.1843 105.877 73.1351 104.583 73.1351H81.9214C80.6277 73.1351 79.5776 74.1843 79.5776 75.4788ZM84.2651 77.8226H102.239V95.7953H84.2651V77.8226Z" fill="#14697E"/>
<path fill-rule="evenodd" clip-rule="evenodd" d="M11.1841 98.139C11.1841 99.4336 12.2333 100.483 13.5278 100.483H36.188C37.4826 100.483 38.5318 99.4336 38.5318 98.139V75.4788C38.5318 74.1843 37.4826 73.1351 36.188 73.1351H13.5278C12.2333 73.1351 11.1841 74.1843 11.1841 75.4788V98.139ZM15.8716 77.8226H33.8443V95.7953H15.8716V77.8226Z" fill="#14697E"/>
<path fill-rule="evenodd" clip-rule="evenodd" d="M47.7246 100.483H70.3848C71.6794 100.483 72.7286 99.4336 72.7286 98.139V75.4788C72.7286 74.1843 71.6794 73.1351 70.3848 73.1351H47.7246C46.4301 73.1351 45.3809 74.1843 45.3809 75.4788V98.139C45.3809 99.4336 46.4301 100.483 47.7246 100.483ZM50.0684 77.8226H68.0411V95.7953H50.0684V77.8226Z" fill="#14697E"/>
<path fill-rule="evenodd" clip-rule="evenodd" d="M46.3284 41.0687H49.9283C51.2228 41.0687 52.272 40.0195 52.272 38.725C52.272 37.4313 51.2228 36.3812 49.9283 36.3812H46.3284C45.0339 36.3812 43.9847 37.4313 43.9847 38.725C43.9847 40.0195 45.0339 41.0687 46.3284 41.0687Z" fill="#14697E"/>
<path fill-rule="evenodd" clip-rule="evenodd" d="M41.3452 63.8617C41.3452 62.5681 40.296 61.5179 39.0015 61.5179H35.4025C34.108 61.5179 33.0588 62.5681 33.0588 63.8617C33.0588 65.1562 34.108 66.2054 35.4025 66.2054H39.0015C40.296 66.2054 41.3452 65.1562 41.3452 63.8617Z" fill="#14697E"/>
<path fill-rule="evenodd" clip-rule="evenodd" d="M46.3284 66.2054H49.9283C51.2228 66.2054 52.272 65.1562 52.272 63.8617C52.272 62.5681 51.2228 61.5179 49.9283 61.5179H46.3284C45.0339 61.5179 43.9847 62.5681 43.9847 63.8617C43.9847 65.1562 45.0339 66.2054 46.3284 66.2054Z" fill="#14697E"/>
<path fill-rule="evenodd" clip-rule="evenodd" d="M39.0015 36.3812H35.4025C34.108 36.3812 33.0588 37.4313 33.0588 38.725C33.0588 40.0195 34.108 41.0687 35.4025 41.0687H39.0015C40.296 41.0687 41.3452 40.0195 41.3452 38.725C41.3452 37.4313 40.296 36.3812 39.0015 36.3812Z" fill="#14697E"/>
<path fill-rule="evenodd" clip-rule="evenodd" d="M57.2552 41.0687H60.8542C62.1487 41.0687 63.1979 40.0195 63.1979 38.725C63.1979 37.4313 62.1487 36.3812 60.8542 36.3812H57.2552C55.9607 36.3812 54.9115 37.4313 54.9115 38.725C54.9115 40.0195 55.9607 41.0687 57.2552 41.0687Z" fill="#14697E"/>
<path fill-rule="evenodd" clip-rule="evenodd" d="M57.2552 66.2054H60.8542C62.1487 66.2054 63.1979 65.1562 63.1979 63.8617C63.1979 62.5681 62.1487 61.5179 60.8542 61.5179H57.2552C55.9607 61.5179 54.9115 62.5681 54.9115 63.8617C54.9115 65.1562 55.9607 66.2054 57.2552 66.2054Z" fill="#14697E"/>
<path fill-rule="evenodd" clip-rule="evenodd" d="M68.1821 66.2054H71.781C73.0756 66.2054 74.1248 65.1562 74.1248 63.8617C74.1248 62.5681 73.0756 61.5179 71.781 61.5179H68.1821C66.8875 61.5179 65.8383 62.5681 65.8383 63.8617C65.8383 65.1562 66.8875 66.2054 68.1821 66.2054Z" fill="#14697E"/>
<path fill-rule="evenodd" clip-rule="evenodd" d="M68.1821 41.0687H71.781C73.0756 41.0687 74.1248 40.0195 74.1248 38.725C74.1248 37.4313 73.0756 36.3812 71.781 36.3812H68.1821C66.8875 36.3812 65.8383 37.4313 65.8383 38.725C65.8383 40.0195 66.8875 41.0687 68.1821 41.0687Z" fill="#14697E"/>
<path fill-rule="evenodd" clip-rule="evenodd" d="M24.4757 41.0687H28.0746C29.3692 41.0687 30.4184 40.0195 30.4184 38.725C30.4184 37.4313 29.3692 36.3812 28.0746 36.3812H24.4757C23.1812 36.3812 22.132 37.4313 22.132 38.725C22.132 40.0195 23.1812 41.0687 24.4757 41.0687Z" fill="#14697E"/>
<path fill-rule="evenodd" clip-rule="evenodd" d="M79.108 41.0687H82.7078C84.0015 41.0687 85.0516 40.0195 85.0516 38.725C85.0516 37.4313 84.0015 36.3812 82.7078 36.3812H79.108C77.8134 36.3812 76.7642 37.4313 76.7642 38.725C76.7642 40.0195 77.8134 41.0687 79.108 41.0687Z" fill="#14697E"/>
<path fill-rule="evenodd" clip-rule="evenodd" d="M11.1841 52.8699C11.1841 54.1644 12.2333 55.2136 13.5278 55.2136C14.8224 55.2136 15.8716 54.1644 15.8716 52.8699V49.7177C15.8716 48.4232 14.8224 47.374 13.5278 47.374C12.2333 47.374 11.1841 48.4232 11.1841 49.7177V52.8699Z" fill="#14697E"/>
<path fill-rule="evenodd" clip-rule="evenodd" d="M11.1841 63.8617C11.1841 65.1562 12.2333 66.2054 13.5278 66.2054H17.1487C18.4433 66.2054 19.4925 65.1562 19.4925 63.8617C19.4925 62.5681 18.4433 61.5179 17.1487 61.5179H15.8716V60.2408C15.8716 58.9471 14.8224 57.897 13.5278 57.897C12.2333 57.897 11.1841 58.9471 11.1841 60.2408V63.8617Z" fill="#14697E"/>
<path fill-rule="evenodd" clip-rule="evenodd" d="M13.5278 44.6906C14.8224 44.6906 15.8716 43.6404 15.8716 42.3468V41.0687H17.1487C18.4433 41.0687 19.4925 40.0195 19.4925 38.725C19.4925 37.4313 18.4433 36.3812 17.1487 36.3812H13.5278C12.2333 36.3812 11.1841 37.4313 11.1841 38.725V42.3468C11.1841 43.6404 12.2333 44.6906 13.5278 44.6906Z" fill="#14697E"/>
<path fill-rule="evenodd" clip-rule="evenodd" d="M79.108 66.2054H82.7078C84.0015 66.2054 85.0516 65.1562 85.0516 63.8617C85.0516 62.5681 84.0015 61.5179 82.7078 61.5179H79.108C77.8134 61.5179 76.7642 62.5681 76.7642 63.8617C76.7642 65.1562 77.8134 66.2054 79.108 66.2054Z" fill="#14697E"/>
<path fill-rule="evenodd" clip-rule="evenodd" d="M90.0348 41.0687H93.6337C94.9283 41.0687 95.9775 40.0195 95.9775 38.725C95.9775 37.4313 94.9283 36.3812 93.6337 36.3812H90.0348C88.7402 36.3812 87.691 37.4313 87.691 38.725C87.691 40.0195 88.7402 41.0687 90.0348 41.0687Z" fill="#14697E"/>
<path fill-rule="evenodd" clip-rule="evenodd" d="M24.4757 66.2054H28.0746C29.3692 66.2054 30.4184 65.1562 30.4184 63.8617C30.4184 62.5681 29.3692 61.5179 28.0746 61.5179H24.4757C23.1812 61.5179 22.132 62.5681 22.132 63.8617C22.132 65.1562 23.1812 66.2054 24.4757 66.2054Z" fill="#14697E"/>
<path fill-rule="evenodd" clip-rule="evenodd" d="M90.0348 66.2054H93.6337C94.9283 66.2054 95.9775 65.1562 95.9775 63.8617C95.9775 62.5681 94.9283 61.5179 93.6337 61.5179H90.0348C88.7402 61.5179 87.691 62.5681 87.691 63.8617C87.691 65.1562 88.7402 66.2054 90.0348 66.2054Z" fill="#14697E"/>
<path fill-rule="evenodd" clip-rule="evenodd" d="M106.926 38.725C106.926 37.4313 105.877 36.3812 104.583 36.3812H100.962C99.6671 36.3812 98.6179 37.4313 98.6179 38.725C98.6179 40.0195 99.6671 41.0687 100.962 41.0687H102.239V42.3468C102.239 43.6404 103.288 44.6906 104.583 44.6906C105.877 44.6906 106.926 43.6404 106.926 42.3468V38.725Z" fill="#14697E"/>
<path fill-rule="evenodd" clip-rule="evenodd" d="M104.583 47.374C103.288 47.374 102.239 48.4232 102.239 49.7177V52.8699C102.239 54.1644 103.288 55.2136 104.583 55.2136C105.877 55.2136 106.926 54.1644 106.926 52.8699V49.7177C106.926 48.4232 105.877 47.374 104.583 47.374Z" fill="#14697E"/>
<path fill-rule="evenodd" clip-rule="evenodd" d="M100.962 66.2054H104.583C105.877 66.2054 106.926 65.1562 106.926 63.8617V60.2408C106.926 58.9471 105.877 57.897 104.583 57.897C103.288 57.897 102.239 58.9471 102.239 60.2408V61.5179H100.962C99.6671 61.5179 98.6179 62.5681 98.6179 63.8617C98.6179 65.1562 99.6671 66.2054 100.962 66.2054Z" fill="#14697E"/>
<path fill-rule="evenodd" clip-rule="evenodd" d="M60 107.978C58.7091 107.978 57.6562 109.031 57.6562 110.322C57.6562 111.613 58.7091 112.666 60 112.666C61.2909 112.666 62.3438 111.613 62.3438 110.322C62.3438 109.031 61.2909 107.978 60 107.978Z" fill="#14697E"/>
</svg>
