<svg width="208" height="224" viewBox="0 0 208 224" fill="none" xmlns="http://www.w3.org/2000/svg">
<path d="M42.2942 158.216C40.5662 158.216 39.0542 157.856 37.7582 157.136C36.4782 156.4 35.4942 155.376 34.8062 154.064C34.1182 152.736 33.7742 151.192 33.7742 149.432C33.7742 147.688 34.1182 146.16 34.8062 144.848C35.4942 143.52 36.4782 142.496 37.7582 141.776C39.0542 141.056 40.5662 140.696 42.2942 140.696C43.4302 140.696 44.5102 140.872 45.5342 141.224C46.5742 141.56 47.4222 142.04 48.0782 142.664L46.9022 145.352C46.1342 144.776 45.3822 144.36 44.6462 144.104C43.9262 143.832 43.1662 143.696 42.3662 143.696C40.8302 143.696 39.6542 144.184 38.8382 145.16C38.0222 146.136 37.6142 147.56 37.6142 149.432C37.6142 151.32 38.0222 152.76 38.8382 153.752C39.6542 154.728 40.8302 155.216 42.3662 155.216C43.1662 155.216 43.9262 155.088 44.6462 154.832C45.3822 154.56 46.1342 154.136 46.9022 153.56L48.0782 156.248C47.4222 156.872 46.5742 157.36 45.5342 157.712C44.5102 158.048 43.4302 158.216 42.2942 158.216ZM58.2043 158.216C56.5083 158.216 55.0283 157.864 53.7643 157.16C52.5163 156.44 51.5483 155.416 50.8603 154.088C50.1883 152.76 49.8523 151.208 49.8523 149.432C49.8523 147.656 50.1883 146.112 50.8603 144.8C51.5483 143.488 52.5163 142.48 53.7643 141.776C55.0283 141.056 56.5083 140.696 58.2043 140.696C59.9003 140.696 61.3723 141.056 62.6203 141.776C63.8683 142.48 64.8283 143.488 65.5003 144.8C66.1723 146.112 66.5083 147.656 66.5083 149.432C66.5083 151.208 66.1723 152.76 65.5003 154.088C64.8283 155.416 63.8683 156.44 62.6203 157.16C61.3723 157.864 59.9003 158.216 58.2043 158.216ZM58.2043 155.288C59.6443 155.288 60.7643 154.784 61.5643 153.776C62.3803 152.768 62.7883 151.32 62.7883 149.432C62.7883 147.544 62.3803 146.104 61.5643 145.112C60.7643 144.12 59.6443 143.624 58.2043 143.624C56.7643 143.624 55.6363 144.12 54.8203 145.112C54.0203 146.104 53.6203 147.544 53.6203 149.432C53.6203 151.336 54.0203 152.792 54.8203 153.8C55.6363 154.792 56.7643 155.288 58.2043 155.288ZM86.4025 140.912V158H83.0905V148.664L79.1545 158H76.7305L72.7705 148.784V158H69.4825V140.912H72.4585L77.9785 153.512L83.4505 140.912H86.4025ZM89.8485 140.912H97.6005C99.4885 140.912 100.953 141.368 101.993 142.28C103.049 143.192 103.577 144.432 103.577 146C103.577 147.552 103.049 148.792 101.993 149.72C100.937 150.632 99.4725 151.088 97.6005 151.088H93.5925V158H89.8485V140.912ZM97.1205 148.232C99.0725 148.232 100.049 147.496 100.049 146.024C100.049 144.536 99.0725 143.792 97.1205 143.792H93.5925V148.232H97.1205ZM113.292 158.216C110.892 158.216 109.068 157.6 107.82 156.368C106.572 155.136 105.948 153.328 105.948 150.944V140.912H109.62V151.112C109.62 152.472 109.932 153.512 110.556 154.232C111.196 154.936 112.108 155.288 113.292 155.288C114.476 155.288 115.38 154.936 116.004 154.232C116.628 153.512 116.94 152.472 116.94 151.112V140.912H120.636V150.944C120.636 153.312 120.004 155.12 118.74 156.368C117.492 157.6 115.676 158.216 113.292 158.216ZM127.886 143.96H122.534V140.912H137.03V143.96H131.678V158H127.886V143.96ZM139.02 140.912H150.804V143.816H142.668V147.848H150.3V150.776H142.668V155.096H150.804V158H139.02V140.912ZM167.812 158H163.852L161.668 152.312C161.492 151.864 161.22 151.552 160.852 151.376C160.5 151.2 160.052 151.112 159.508 151.112H157.084V158H153.388V140.912H160.996C162.98 140.912 164.484 141.344 165.508 142.208C166.532 143.072 167.044 144.312 167.044 145.928C167.044 147.064 166.74 148.04 166.132 148.856C165.54 149.672 164.684 150.256 163.564 150.608C164.572 150.816 165.3 151.512 165.748 152.696L167.812 158ZM160.444 148.256C161.516 148.256 162.3 148.08 162.796 147.728C163.292 147.36 163.54 146.792 163.54 146.024C163.54 145.256 163.292 144.696 162.796 144.344C162.3 143.976 161.516 143.792 160.444 143.792H157.036V148.256H160.444ZM48.6683 188.216C47.3723 188.216 46.1243 188.048 44.9243 187.712C43.7403 187.36 42.7563 186.872 41.9723 186.248L43.1723 183.56C44.8203 184.712 46.6603 185.288 48.6923 185.288C49.7803 185.288 50.6123 185.12 51.1883 184.784C51.7803 184.432 52.0763 183.944 52.0763 183.32C52.0763 182.776 51.8043 182.352 51.2603 182.048C50.7323 181.728 49.7963 181.424 48.4523 181.136C46.9483 180.832 45.7483 180.464 44.8523 180.032C43.9723 179.584 43.3243 179.048 42.9083 178.424C42.5083 177.784 42.3083 176.992 42.3083 176.048C42.3083 175.024 42.5883 174.104 43.1483 173.288C43.7243 172.472 44.5243 171.84 45.5483 171.392C46.5723 170.928 47.7563 170.696 49.1003 170.696C50.3163 170.696 51.4843 170.872 52.6043 171.224C53.7243 171.576 54.6203 172.056 55.2923 172.664L54.0923 175.352C52.5883 174.2 50.9323 173.624 49.1243 173.624C48.1643 173.624 47.3963 173.816 46.8203 174.2C46.2443 174.584 45.9563 175.104 45.9563 175.76C45.9563 176.144 46.0603 176.464 46.2683 176.72C46.4923 176.976 46.8603 177.208 47.3723 177.416C47.8843 177.608 48.6123 177.8 49.5563 177.992C51.7483 178.472 53.3243 179.096 54.2843 179.864C55.2603 180.632 55.7483 181.68 55.7483 183.008C55.7483 184.608 55.1243 185.88 53.8763 186.824C52.6283 187.752 50.8923 188.216 48.6683 188.216ZM58.4657 170.912H70.2497V173.816H62.1137V177.848H69.7457V180.776H62.1137V185.096H70.2497V188H58.4657V170.912ZM87.2569 188H83.2969L81.1129 182.312C80.9369 181.864 80.6649 181.552 80.2969 181.376C79.9449 181.2 79.4969 181.112 78.9529 181.112H76.5289V188H72.8329V170.912H80.4409C82.4249 170.912 83.9289 171.344 84.9529 172.208C85.9769 173.072 86.4889 174.312 86.4889 175.928C86.4889 177.064 86.1849 178.04 85.5769 178.856C84.9849 179.672 84.1289 180.256 83.0089 180.608C84.0169 180.816 84.7449 181.512 85.1929 182.696L87.2569 188ZM79.8889 178.256C80.9609 178.256 81.7449 178.08 82.2409 177.728C82.7369 177.36 82.9849 176.792 82.9849 176.024C82.9849 175.256 82.7369 174.696 82.2409 174.344C81.7449 173.976 80.9609 173.792 79.8889 173.792H76.4809V178.256H79.8889ZM105.887 170.912L98.2067 188H95.2067L87.5267 170.912H91.4147L96.7427 183.32L102.119 170.912H105.887ZM107.239 170.912H110.983V188H107.239V170.912ZM122.427 188.216C120.699 188.216 119.187 187.856 117.891 187.136C116.611 186.4 115.627 185.376 114.939 184.064C114.251 182.736 113.907 181.192 113.907 179.432C113.907 177.688 114.251 176.16 114.939 174.848C115.627 173.52 116.611 172.496 117.891 171.776C119.187 171.056 120.699 170.696 122.427 170.696C123.563 170.696 124.643 170.872 125.667 171.224C126.707 171.56 127.555 172.04 128.211 172.664L127.035 175.352C126.267 174.776 125.515 174.36 124.779 174.104C124.059 173.832 123.299 173.696 122.499 173.696C120.963 173.696 119.787 174.184 118.971 175.16C118.155 176.136 117.747 177.56 117.747 179.432C117.747 181.32 118.155 182.76 118.971 183.752C119.787 184.728 120.963 185.216 122.499 185.216C123.299 185.216 124.059 185.088 124.779 184.832C125.515 184.56 126.267 184.136 127.035 183.56L128.211 186.248C127.555 186.872 126.707 187.36 125.667 187.712C124.643 188.048 123.563 188.216 122.427 188.216ZM130.841 170.912H142.625V173.816H134.489V177.848H142.121V180.776H134.489V185.096H142.625V188H130.841V170.912ZM165.926 188.24C164.422 187.776 163.19 187.12 162.23 186.272C160.726 187.552 159.022 188.192 157.118 188.192C155.918 188.192 154.854 187.992 153.926 187.592C153.014 187.192 152.302 186.632 151.79 185.912C151.278 185.176 151.022 184.344 151.022 183.416C151.022 182.392 151.294 181.488 151.838 180.704C152.382 179.92 153.238 179.192 154.406 178.52C153.302 177.352 152.75 176.152 152.75 174.92C152.75 174.104 152.958 173.384 153.374 172.76C153.79 172.12 154.366 171.624 155.102 171.272C155.854 170.92 156.718 170.744 157.694 170.744C159.054 170.744 160.142 171.096 160.958 171.8C161.774 172.488 162.182 173.416 162.182 174.584C162.182 175.48 161.934 176.28 161.438 176.984C160.942 177.688 160.166 178.344 159.11 178.952L162.062 181.856C162.67 180.56 163.022 179.128 163.118 177.56H166.118C165.99 180.024 165.358 182.16 164.222 183.968C165.214 184.816 166.358 185.408 167.654 185.744L165.926 188.24ZM157.742 173.168C157.214 173.168 156.79 173.328 156.47 173.648C156.15 173.952 155.99 174.368 155.99 174.896C155.99 175.216 156.078 175.536 156.254 175.856C156.446 176.176 156.782 176.592 157.262 177.104C157.998 176.704 158.518 176.32 158.822 175.952C159.142 175.584 159.302 175.176 159.302 174.728C159.302 174.248 159.158 173.872 158.87 173.6C158.582 173.312 158.206 173.168 157.742 173.168ZM154.55 183.2C154.55 183.888 154.79 184.432 155.27 184.832C155.75 185.232 156.398 185.432 157.214 185.432C158.302 185.432 159.302 185.048 160.214 184.28L156.278 180.392C155.686 180.776 155.246 181.2 154.958 181.664C154.686 182.112 154.55 182.624 154.55 183.2ZM76.0772 218H72.1172L69.9332 212.312C69.7572 211.864 69.4852 211.552 69.1172 211.376C68.7652 211.2 68.3172 211.112 67.7732 211.112H65.3492V218H61.6532V200.912H69.2612C71.2452 200.912 72.7492 201.344 73.7732 202.208C74.7972 203.072 75.3092 204.312 75.3092 205.928C75.3092 207.064 75.0052 208.04 74.3972 208.856C73.8052 209.672 72.9492 210.256 71.8292 210.608C72.8372 210.816 73.5652 211.512 74.0132 212.696L76.0772 218ZM68.7092 208.256C69.7812 208.256 70.5652 208.08 71.0612 207.728C71.5572 207.36 71.8052 206.792 71.8052 206.024C71.8052 205.256 71.5572 204.696 71.0612 204.344C70.5652 203.976 69.7812 203.792 68.7092 203.792H65.3012V208.256H68.7092ZM78.6454 200.912H90.4294V203.816H82.2934V207.848H89.9254V210.776H82.2934V215.096H90.4294V218H78.6454V200.912ZM93.0126 200.912H100.765C102.653 200.912 104.117 201.368 105.157 202.28C106.213 203.192 106.741 204.432 106.741 206C106.741 207.552 106.213 208.792 105.157 209.72C104.101 210.632 102.637 211.088 100.765 211.088H96.7566V218H93.0126V200.912ZM100.285 208.232C102.237 208.232 103.213 207.496 103.213 206.024C103.213 204.536 102.237 203.792 100.285 203.792H96.7566V208.232H100.285ZM118.804 214.208H110.812L109.18 218H105.412L113.26 200.912H116.284L124.132 218H120.436L118.804 214.208ZM117.58 211.352L114.82 204.944L112.06 211.352H117.58ZM125.591 200.912H129.335V218H125.591V200.912ZM147.187 218H143.227L141.043 212.312C140.867 211.864 140.595 211.552 140.227 211.376C139.875 211.2 139.427 211.112 138.883 211.112H136.459V218H132.763V200.912H140.371C142.355 200.912 143.859 201.344 144.883 202.208C145.907 203.072 146.419 204.312 146.419 205.928C146.419 207.064 146.115 208.04 145.507 208.856C144.915 209.672 144.059 210.256 142.939 210.608C143.947 210.816 144.675 211.512 145.123 212.696L147.187 218ZM139.819 208.256C140.891 208.256 141.675 208.08 142.171 207.728C142.667 207.36 142.915 206.792 142.915 206.024C142.915 205.256 142.667 204.696 142.171 204.344C141.675 203.976 140.891 203.792 139.819 203.792H136.411V208.256H139.819Z" fill="#14697E"/>
<path fill-rule="evenodd" clip-rule="evenodd" d="M151.816 7.5H56.1838C49.4657 7.5 44 12.9657 44 19.6838V77.4939C44 84.212 49.4657 89.6777 56.1838 89.6777H88.6466V99.2651C88.6466 103.06 86.1738 106.501 82.595 107.746H77.5852C76.2916 107.746 75.2415 108.795 75.2415 110.089C75.2415 111.383 76.2916 112.433 77.5852 112.433H82.941H82.9767H94.625C95.9196 112.433 96.9688 111.383 96.9688 110.089C96.9688 108.795 95.9196 107.746 94.625 107.746H90.344C92.2263 105.376 93.3341 102.401 93.3341 99.2651V89.6777H114.666V99.2651C114.666 102.401 115.774 105.376 117.656 107.746H113.375C112.08 107.746 111.031 108.795 111.031 110.089C111.031 111.383 112.08 112.433 113.375 112.433H125.013H125.031H125.048H130.414C131.708 112.433 132.758 111.383 132.758 110.089C132.758 108.795 131.708 107.746 130.414 107.746H125.405C121.826 106.501 119.353 103.06 119.353 99.2651V89.6777H151.816C158.534 89.6777 164 84.212 164 77.4939V19.6838C164 12.9657 158.534 7.5 151.816 7.5ZM56.1838 12.1875H151.816C155.95 12.1875 159.312 15.5502 159.312 19.6838V70.415H48.6875V19.6838C48.6875 15.5502 52.0502 12.1875 56.1838 12.1875ZM151.816 84.9902H56.1838C52.0502 84.9902 48.6875 81.6275 48.6875 77.4939V75.1025H159.312V77.4939C159.312 81.6275 155.95 84.9902 151.816 84.9902Z" fill="#14697E"/>
<path fill-rule="evenodd" clip-rule="evenodd" d="M80.9617 48.0112H82.6417C83.0179 49.1867 83.4913 50.3284 84.058 51.4261L82.8687 52.6154C82.4293 53.0548 82.1821 53.6508 82.1821 54.2725C82.1821 54.8941 82.4293 55.491 82.8687 55.9305L89.2353 62.2961C90.1508 63.2108 91.634 63.2108 92.5504 62.2961L93.7397 61.1069C94.8383 61.6736 95.9791 62.1469 97.1546 62.5232V64.2032C97.1546 65.4977 98.2038 66.5469 99.4984 66.5469H108.502C109.795 66.5469 110.845 65.4977 110.845 64.2032V62.5232C112.021 62.1469 113.162 61.6736 114.26 61.1069L115.451 62.2961C116.365 63.2108 117.849 63.2108 118.765 62.2961L125.131 55.9305C125.571 55.4901 125.818 54.8941 125.818 54.2725C125.818 53.6508 125.571 53.0548 125.13 52.6154L123.942 51.4261C124.509 50.3275 124.982 49.1858 125.358 48.0112H127.038C128.333 48.0112 129.382 46.962 129.382 45.6674V36.6641C129.382 35.3696 128.333 34.3204 127.038 34.3204H125.358C124.981 33.1439 124.509 32.0032 123.942 30.9045L125.131 29.7153C125.571 29.2758 125.818 28.6798 125.818 28.0582C125.818 27.4365 125.571 26.8405 125.131 26.4011L118.765 20.0345C117.85 19.1199 116.366 19.1199 115.451 20.0345L114.26 21.2247C113.162 20.657 112.021 20.1837 110.845 19.8074V18.1274C110.845 16.8329 109.795 15.7837 108.502 15.7837H99.4984C98.2038 15.7837 97.1546 16.8329 97.1546 18.1274V19.8074C95.9791 20.1837 94.8374 20.657 93.7397 21.2238L92.5504 20.0345C91.6349 19.1199 90.1517 19.1199 89.2353 20.0345L82.8687 26.4011C81.9541 27.3166 81.9541 28.7997 82.8687 29.7153L84.058 30.9055C83.4913 32.0041 83.0179 33.1448 82.6417 34.3204H80.9617C79.6671 34.3204 78.6179 35.3696 78.6179 36.6641V45.6674C78.6179 46.962 79.6671 48.0112 80.9617 48.0112ZM83.3054 39.0079H84.4269C85.5201 39.0079 86.4677 38.2526 86.7121 37.1869C87.1525 35.2634 87.9105 33.436 88.9643 31.756C89.5447 30.8304 89.4083 29.6265 88.6365 28.8538L87.8409 28.0582L90.8924 25.0058L91.688 25.8014C92.4607 26.5741 93.6646 26.7105 94.5911 26.1292C96.2693 25.0763 98.0967 24.3182 100.022 23.877C101.087 23.6334 101.842 22.6849 101.842 21.5927V20.4712H106.158V21.5927C106.158 22.6849 106.913 23.6334 107.978 23.877C109.902 24.3182 111.73 25.0763 113.409 26.1292C114.334 26.7105 115.538 26.5741 116.312 25.8014L117.108 25.0058L120.159 28.0582L119.363 28.8538C118.591 29.6265 118.455 30.8313 119.036 31.7569C120.089 33.4351 120.848 35.2625 121.289 37.1878C121.532 38.2526 122.481 39.0079 123.573 39.0079H124.695V43.3237H123.573C122.48 43.3237 121.532 44.079 121.289 45.1437C120.848 47.0673 120.089 48.8947 119.036 50.5746C118.455 51.5002 118.592 52.7051 119.364 53.4778L120.159 54.2734L117.108 57.3248L116.311 56.5292C115.538 55.7565 114.334 55.621 113.409 56.2015C111.73 57.2543 109.902 58.0124 107.978 58.4537C106.912 58.6981 106.157 59.6457 106.157 60.7379V61.8604H101.842V60.7379C101.842 59.6457 101.087 58.6981 100.021 58.4537C98.0985 58.0133 96.2711 57.2552 94.5902 56.2015C93.6646 55.6201 92.4607 55.7565 91.688 56.5292L90.8924 57.3248L87.8409 54.2734L88.6356 53.4778C89.4083 52.7051 89.5447 51.5002 88.9634 50.5746C87.9105 48.8965 87.1525 47.0691 86.7112 45.1437C86.4677 44.079 85.5201 43.3237 84.4269 43.3237H83.3054V39.0079Z" fill="#14697E"/>
<path fill-rule="evenodd" clip-rule="evenodd" d="M104 51.4352C109.663 51.4352 114.269 46.8283 114.269 41.1658C114.269 35.5032 109.663 30.8963 104 30.8963C98.3375 30.8963 93.7305 35.5032 93.7305 41.1658C93.7305 46.8283 98.3375 51.4352 104 51.4352ZM104 35.5829C107.078 35.5829 109.582 38.0878 109.582 41.1658C109.582 44.2438 107.078 46.7477 104 46.7477C100.922 46.7477 98.418 44.2438 98.418 41.1658C98.418 38.0878 100.922 35.5829 104 35.5829Z" fill="#14697E"/>
<path fill-rule="evenodd" clip-rule="evenodd" d="M108.017 77.7026H99.9827C98.6881 77.7026 97.6389 78.7518 97.6389 80.0464C97.6389 81.34 98.6881 82.3901 99.9827 82.3901H108.017C109.311 82.3901 110.361 81.34 110.361 80.0464C110.361 78.7518 109.311 77.7026 108.017 77.7026Z" fill="#14697E"/>
<path fill-rule="evenodd" clip-rule="evenodd" d="M104 107.745C102.709 107.745 101.656 108.798 101.656 110.089C101.656 111.379 102.709 112.432 104 112.432C105.291 112.432 106.344 111.379 106.344 110.089C106.344 108.798 105.291 107.745 104 107.745Z" fill="#14697E"/>
</svg>
