<svg width="32" height="32" viewBox="0 0 32 32" fill="none" xmlns="http://www.w3.org/2000/svg">
<g clip-path="url(#clip0)">
<path d="M24.3286 21.1687C23.2831 20.1365 21.978 20.1365 20.9392 21.1687C20.1468 21.9544 19.3544 22.7402 18.5753 23.5392C18.3622 23.759 18.1824 23.8056 17.9227 23.6591C17.41 23.3794 16.864 23.153 16.3712 22.8467C14.0739 21.4017 12.1495 19.5439 10.4448 17.453C9.59911 16.4142 8.84666 15.3022 8.32061 14.0503C8.21406 13.7973 8.23404 13.6308 8.44046 13.4244C9.23287 12.6586 10.0053 11.8728 10.7844 11.0871C11.8698 9.99503 11.8698 8.71652 10.7777 7.6178C10.1585 6.99187 9.53918 6.37925 8.91991 5.75331C8.28065 5.11406 7.64806 4.46814 7.00214 3.83555C5.9567 2.81674 4.65155 2.81674 3.61276 3.84221C2.8137 4.62796 2.04792 5.43368 1.23554 6.20612C0.483082 6.91862 0.103524 7.79093 0.0236177 8.80975C-0.102901 10.4678 0.303291 12.0327 0.875957 13.5575C2.04792 16.7139 3.83251 19.5173 5.99665 22.0876C8.91991 25.5635 12.4092 28.3137 16.4911 30.298C18.3289 31.1903 20.2334 31.8762 22.3043 31.9894C23.7293 32.0693 24.9679 31.7097 25.96 30.5977C26.6392 29.8385 27.405 29.146 28.1242 28.4202C29.1896 27.3415 29.1963 26.0363 28.1375 24.9709C26.8723 23.699 25.6004 22.4338 24.3286 21.1687Z" fill="white"/>
<path d="M23.0567 15.8615L25.5138 15.442C25.1276 13.1846 24.0622 11.1403 22.4441 9.51557C20.7327 7.80423 18.5686 6.72549 16.1847 6.39255L15.8384 8.863C17.683 9.1227 19.361 9.95506 20.6861 11.2802C21.938 12.5321 22.757 14.1169 23.0567 15.8615Z" fill="white"/>
<path d="M26.8989 5.18062C24.0622 2.34393 20.473 0.552689 16.511 0L16.1647 2.47045C19.5874 2.94989 22.6905 4.50142 25.1409 6.94523C27.4649 9.26919 28.9898 12.2058 29.5425 15.4353L31.9996 15.0158C31.3537 11.2735 29.5891 7.87748 26.8989 5.18062Z" fill="white"/>
</g>
<defs>
<clipPath id="clip0">
<rect width="32" height="32" fill="white"/>
</clipPath>
</defs>
</svg>
