<svg width="120" height="120" viewBox="0 0 120 120" fill="none" xmlns="http://www.w3.org/2000/svg">
<path fill-rule="evenodd" clip-rule="evenodd" d="M107.816 7.5H12.1838C5.4657 7.5 0 12.9657 0 19.6838V77.4939C0 84.212 5.4657 89.6777 12.1838 89.6777H44.6466V99.2651C44.6466 103.06 42.1738 106.501 38.595 107.746H33.5852C32.2916 107.746 31.2415 108.795 31.2415 110.089C31.2415 111.383 32.2916 112.433 33.5852 112.433H38.941H38.9767H50.625C51.9196 112.433 52.9688 111.383 52.9688 110.089C52.9688 108.795 51.9196 107.746 50.625 107.746H46.344C48.2263 105.376 49.3341 102.401 49.3341 99.2651V89.6777H70.6659V99.2651C70.6659 102.401 71.7737 105.376 73.656 107.746H69.375C68.0804 107.746 67.0312 108.795 67.0312 110.089C67.0312 111.383 68.0804 112.433 69.375 112.433H81.0132H81.0315H81.048H86.4139C87.7084 112.433 88.7576 111.383 88.7576 110.089C88.7576 108.795 87.7084 107.746 86.4139 107.746H81.405C77.8262 106.501 75.3534 103.06 75.3534 99.2651V89.6777H107.816C114.534 89.6777 120 84.212 120 77.4939V19.6838C120 12.9657 114.534 7.5 107.816 7.5ZM12.1838 12.1875H107.816C111.95 12.1875 115.312 15.5502 115.312 19.6838V70.415H4.6875V19.6838C4.6875 15.5502 8.05023 12.1875 12.1838 12.1875ZM107.816 84.9902H12.1838C8.05023 84.9902 4.6875 81.6275 4.6875 77.4939V75.1025H115.312V77.4939C115.312 81.6275 111.95 84.9902 107.816 84.9902Z" fill="#14697E"/>
<path fill-rule="evenodd" clip-rule="evenodd" d="M36.9617 48.0112H38.6417C39.0179 49.1867 39.4913 50.3284 40.058 51.4261L38.8687 52.6154C38.4293 53.0548 38.1821 53.6508 38.1821 54.2725C38.1821 54.8941 38.4293 55.491 38.8687 55.9305L45.2353 62.2961C46.1508 63.2108 47.634 63.2108 48.5504 62.2961L49.7397 61.1069C50.8383 61.6736 51.9791 62.1469 53.1546 62.5232V64.2032C53.1546 65.4977 54.2038 66.5469 55.4984 66.5469H64.5016C65.7953 66.5469 66.8454 65.4977 66.8454 64.2032V62.5232C68.0209 62.1469 69.1617 61.6736 70.2603 61.1069L71.4505 62.2961C72.3651 63.2108 73.8492 63.2108 74.7647 62.2961L81.1313 55.9305C81.5707 55.4901 81.8179 54.8941 81.8179 54.2725C81.8179 53.6508 81.5707 53.0548 81.1304 52.6154L79.942 51.4261C80.5087 50.3275 80.9821 49.1858 81.3583 48.0112H83.0383C84.3329 48.0112 85.3821 46.962 85.3821 45.6674V36.6641C85.3821 35.3696 84.3329 34.3204 83.0383 34.3204H81.3583C80.9811 33.1439 80.5087 32.0032 79.942 30.9045L81.1313 29.7153C81.5707 29.2758 81.8179 28.6798 81.8179 28.0582C81.8179 27.4365 81.5707 26.8405 81.1313 26.4011L74.7647 20.0345C73.8501 19.1199 72.366 19.1199 71.4505 20.0345L70.2603 21.2247C69.1617 20.657 68.0209 20.1837 66.8454 19.8074V18.1274C66.8454 16.8329 65.7953 15.7837 64.5016 15.7837H55.4984C54.2038 15.7837 53.1546 16.8329 53.1546 18.1274V19.8074C51.9791 20.1837 50.8374 20.657 49.7397 21.2238L48.5504 20.0345C47.6349 19.1199 46.1517 19.1199 45.2353 20.0345L38.8687 26.4011C37.9541 27.3166 37.9541 28.7997 38.8687 29.7153L40.058 30.9055C39.4913 32.0041 39.0179 33.1448 38.6417 34.3204H36.9617C35.6671 34.3204 34.6179 35.3696 34.6179 36.6641V45.6674C34.6179 46.962 35.6671 48.0112 36.9617 48.0112ZM39.3054 39.0079H40.4269C41.5201 39.0079 42.4677 38.2526 42.7121 37.1869C43.1525 35.2634 43.9105 33.436 44.9643 31.756C45.5447 30.8304 45.4083 29.6265 44.6365 28.8538L43.8409 28.0582L46.8924 25.0058L47.688 25.8014C48.4607 26.5741 49.6646 26.7105 50.5911 26.1292C52.2693 25.0763 54.0967 24.3182 56.022 23.877C57.0868 23.6334 57.8421 22.6849 57.8421 21.5927V20.4712H62.1579V21.5927C62.1579 22.6849 62.9132 23.6334 63.978 23.877C65.9024 24.3182 67.7298 25.0763 69.4089 26.1292C70.3345 26.7105 71.5384 26.5741 72.312 25.8014L73.1076 25.0058L76.1591 28.0582L75.3635 28.8538C74.5908 29.6265 74.4553 30.8313 75.0357 31.7569C76.0895 33.4351 76.8475 35.2625 77.2888 37.1878C77.5323 38.2526 78.4808 39.0079 79.5731 39.0079H80.6946V43.3237H79.5731C78.4799 43.3237 77.5323 44.079 77.2888 45.1437C76.8475 47.0673 76.0895 48.8947 75.0357 50.5746C74.4553 51.5002 74.5917 52.7051 75.3644 53.4778L76.1591 54.2734L73.1076 57.3248L72.3111 56.5292C71.5384 55.7565 70.3345 55.621 69.4089 56.2015C67.7298 57.2543 65.9024 58.0124 63.978 58.4537C62.9123 58.6981 62.157 59.6457 62.157 60.7379V61.8604H57.8421V60.7379C57.8421 59.6457 57.0868 58.6981 56.0211 58.4537C54.0985 58.0133 52.2711 57.2552 50.5902 56.2015C49.6646 55.6201 48.4607 55.7565 47.688 56.5292L46.8924 57.3248L43.8409 54.2734L44.6356 53.4778C45.4083 52.7051 45.5447 51.5002 44.9634 50.5746C43.9105 48.8965 43.1525 47.0691 42.7112 45.1437C42.4677 44.079 41.5201 43.3237 40.4269 43.3237H39.3054V39.0079Z" fill="#14697E"/>
<path fill-rule="evenodd" clip-rule="evenodd" d="M60 51.4352C65.6625 51.4352 70.2695 46.8283 70.2695 41.1658C70.2695 35.5032 65.6625 30.8963 60 30.8963C54.3375 30.8963 49.7305 35.5032 49.7305 41.1658C49.7305 46.8283 54.3375 51.4352 60 51.4352ZM60 35.5829C63.078 35.5829 65.582 38.0878 65.582 41.1658C65.582 44.2438 63.078 46.7477 60 46.7477C56.922 46.7477 54.418 44.2438 54.418 41.1658C54.418 38.0878 56.922 35.5829 60 35.5829Z" fill="#14697E"/>
<path fill-rule="evenodd" clip-rule="evenodd" d="M64.0173 77.7026H55.9827C54.6881 77.7026 53.6389 78.7518 53.6389 80.0464C53.6389 81.34 54.6881 82.3901 55.9827 82.3901H64.0173C65.311 82.3901 66.3611 81.34 66.3611 80.0464C66.3611 78.7518 65.311 77.7026 64.0173 77.7026Z" fill="#14697E"/>
<path fill-rule="evenodd" clip-rule="evenodd" d="M60 107.745C58.7091 107.745 57.6562 108.798 57.6562 110.089C57.6562 111.379 58.7091 112.432 60 112.432C61.2909 112.432 62.3438 111.379 62.3438 110.089C62.3438 108.798 61.2909 107.745 60 107.745Z" fill="#14697E"/>
</svg>
